<?xml version="1.0" encoding="UTF-8"?>
<!DOCTYPE svg PUBLIC "-//W3C//DTD SVG 1.1//EN" "http://www.w3.org/Graphics/SVG/1.1/DTD/svg11.dtd">
<svg xmlns="http://www.w3.org/2000/svg" version="1.1" width="512px" height="512px" style="shape-rendering:geometricPrecision; text-rendering:geometricPrecision; image-rendering:optimizeQuality; fill-rule:evenodd; clip-rule:evenodd" xmlns:xlink="http://www.w3.org/1999/xlink">
<g><path style="opacity:0.938" fill="#f2f7fd" d="M 248.5,-0.5 C 253.167,-0.5 257.833,-0.5 262.5,-0.5C 270.122,4.7711 277.789,10.1044 285.5,15.5C 279.167,16.1667 272.833,16.8333 266.5,17.5C 259.167,9.5 251.833,9.5 244.5,17.5C 238.167,16.8333 231.833,16.1667 225.5,15.5C 233.211,10.1044 240.878,4.7711 248.5,-0.5 Z"/></g>
<g><path style="opacity:0.967" fill="#eaebf8" d="M 225.5,15.5 C 231.833,16.1667 238.167,16.8333 244.5,17.5C 236.632,24.1005 227.632,28.6005 217.5,31C 203.471,31.9393 189.471,32.9393 175.5,34C 170.645,36.5658 167.311,40.3992 165.5,45.5C 161.833,44.8333 158.167,44.1667 154.5,43.5C 156.9,31.2662 164.233,23.7662 176.5,21C 187.5,20.6667 198.5,20.3333 209.5,20C 215.058,19.2016 220.391,17.7016 225.5,15.5 Z"/></g>
<g><path style="opacity:0.96" fill="#eaebf8" d="M 285.5,15.5 C 290.609,17.7016 295.942,19.2016 301.5,20C 312.5,20.3333 323.5,20.6667 334.5,21C 346.767,23.7662 354.1,31.2662 356.5,43.5C 352.351,42.9197 348.684,43.5864 345.5,45.5C 343.689,40.3992 340.355,36.5658 335.5,34C 321.529,32.9393 307.529,31.9393 293.5,31C 283.368,28.6005 274.368,24.1005 266.5,17.5C 272.833,16.8333 279.167,16.1667 285.5,15.5 Z"/></g>
<g><path style="opacity:0.991" fill="#feefad" d="M 145.5,63.5 C 148.539,66.5398 151.873,69.2065 155.5,71.5C 159.377,76.468 161.043,82.1346 160.5,88.5C 130.487,87.7195 100.487,86.5528 70.5,85C 69.9781,84.4387 69.6448,83.772 69.5,83C 71.3402,78.3631 72.0068,73.6964 71.5,69C 73,68.1667 74.1667,67 75,65.5C 76.504,60.1483 78.004,54.8149 79.5,49.5C 103.568,44.8459 125.568,49.5126 145.5,63.5 Z"/></g>
<g><path style="opacity:0.99" fill="#feefac" d="M 436.5,50.5 C 440.24,61.3846 443.573,72.3846 446.5,83.5C 444.855,84.4787 443.521,85.812 442.5,87.5C 440.667,87.8333 438.833,88.1667 437,88.5C 408.486,89.7953 379.986,91.1286 351.5,92.5C 349.389,84.9377 350.722,77.9377 355.5,71.5C 358.603,69.5767 361.603,67.41 364.5,65C 365.252,64.3292 365.586,63.4959 365.5,62.5C 387.447,48.464 411.114,44.464 436.5,50.5 Z"/></g>
<g><path style="opacity:0.956" fill="#ddd7ef" d="M 154.5,43.5 C 158.167,44.1667 161.833,44.8333 165.5,45.5C 166.056,55.7121 162.723,64.3788 155.5,71.5C 151.873,69.2065 148.539,66.5398 145.5,63.5C 151.598,58.1997 154.598,51.5331 154.5,43.5 Z"/></g>
<g><path style="opacity:0.951" fill="#ddd8f0" d="M 356.5,43.5 C 356.231,51.3494 359.231,57.6827 365.5,62.5C 365.586,63.4959 365.252,64.3292 364.5,65C 361.603,67.41 358.603,69.5767 355.5,71.5C 348.277,64.3788 344.944,55.7121 345.5,45.5C 348.684,43.5864 352.351,42.9197 356.5,43.5 Z"/></g>
<g><path style="opacity:0.976" fill="#fde098" d="M 436.5,50.5 C 441.784,51.5946 446.784,53.2613 451.5,55.5C 450.957,55.56 450.624,55.8933 450.5,56.5C 452.663,64.8229 455.33,72.9896 458.5,81C 457.098,84.322 455.098,87.1553 452.5,89.5C 452.657,88.1266 452.49,86.7932 452,85.5C 447.531,93.4957 445.698,92.829 446.5,83.5C 443.573,72.3846 440.24,61.3846 436.5,50.5 Z"/></g>
<g><path style="opacity:0.994" fill="#fdd586" d="M 64.5,53.5 C 62.1432,62.7391 59.4766,71.9058 56.5,81C 57.8235,85.1144 58.8235,89.2811 59.5,93.5C 57.0752,93.684 57.0752,94.3507 59.5,95.5C 59.1373,96.1835 58.8039,96.8501 58.5,97.5C 58.6567,98.8734 58.49,100.207 58,101.5C 57.3333,99.5 56,98.1667 54,97.5C 53.3032,100.485 52.8032,103.485 52.5,106.5C 51.1667,105.167 49.8333,103.833 48.5,102.5C 48.2643,100.284 48.2643,98.1177 48.5,96C 47.0422,93.54 45.2089,91.3734 43,89.5C 42.3828,90.4491 42.5494,91.2825 43.5,92C 42.6683,92.6877 42.0016,92.521 41.5,91.5C 40.3906,89.6147 39.5573,87.6147 39,85.5C 39.1243,79.4957 40.291,73.6624 42.5,68C 42.1639,66.9701 41.4972,66.4701 40.5,66.5C 47.5652,60.6308 55.5652,56.2974 64.5,53.5 Z"/></g>
<g><path style="opacity:0.995" fill="#fdd082" d="M 451.5,55.5 C 458.66,57.9076 464.993,61.5743 470.5,66.5C 469.503,66.4701 468.836,66.9701 468.5,68C 470.709,73.6624 471.876,79.4957 472,85.5C 471.443,87.6147 470.609,89.6147 469.5,91.5C 468.998,92.521 468.332,92.6877 467.5,92C 468.451,91.2825 468.617,90.4491 468,89.5C 465.791,91.3734 463.958,93.54 462.5,96C 462.736,98.1177 462.736,100.284 462.5,102.5C 461.167,103.833 459.833,105.167 458.5,106.5C 458.197,103.485 457.697,100.485 457,97.5C 455,98.1667 453.667,99.5 453,101.5C 452.51,100.207 452.343,98.8734 452.5,97.5C 450.94,95.8706 451.273,94.704 453.5,94C 452.906,93.5357 452.239,93.369 451.5,93.5C 452.234,92.2921 452.567,90.9587 452.5,89.5C 455.098,87.1553 457.098,84.322 458.5,81C 455.33,72.9896 452.663,64.8229 450.5,56.5C 450.624,55.8933 450.957,55.56 451.5,55.5 Z"/></g>
<g><path style="opacity:0.995" fill="#fdeaa0" d="M 79.5,49.5 C 78.004,54.8149 76.504,60.1483 75,65.5C 74.1667,67 73,68.1667 71.5,69C 72.0068,73.6964 71.3402,78.3631 69.5,83C 69.6448,83.772 69.9781,84.4387 70.5,85C 100.487,86.5528 130.487,87.7195 160.5,88.5C 160.089,92.2215 159.422,95.8881 158.5,99.5C 128.323,98.3586 98.1563,97.0253 68,95.5C 66.3419,95.6752 65.0086,96.3418 64,97.5C 62.6927,95.8082 61.1927,94.4749 59.5,93.5C 58.8235,89.2811 57.8235,85.1144 56.5,81C 59.4766,71.9058 62.1432,62.7391 64.5,53.5C 69.1906,51.409 74.1906,50.0756 79.5,49.5 Z"/></g>
<g><path style="opacity:0.998" fill="#fdea9a" d="M 446.5,83.5 C 445.698,92.829 447.531,93.4957 452,85.5C 452.49,86.7932 452.657,88.1266 452.5,89.5C 452.567,90.9587 452.234,92.2921 451.5,93.5C 449.807,94.4749 448.307,95.8082 447,97.5C 445.991,96.3418 444.658,95.6752 443,95.5C 412.844,97.0253 382.677,98.3586 352.5,99.5C 351.781,97.2362 351.448,94.9029 351.5,92.5C 379.986,91.1286 408.486,89.7953 437,88.5C 438.833,88.1667 440.667,87.8333 442.5,87.5C 443.521,85.812 444.855,84.4787 446.5,83.5 Z"/></g>
<g><path style="opacity:0.985" fill="#ff9ba9" d="M 265.5,86.5 C 265.631,87.2389 265.464,87.9056 265,88.5C 252.965,100.368 241.131,112.368 229.5,124.5C 208.227,127.924 188.227,134.924 169.5,145.5C 168.427,144.749 168.26,143.749 169,142.5C 179.937,126.951 190.104,110.951 199.5,94.5C 221.052,88.5561 243.052,85.8895 265.5,86.5 Z"/></g>
<g><path style="opacity:0.991" fill="#ff8e9f" d="M 265.5,86.5 C 283.328,87.6914 300.661,91.0248 317.5,96.5C 307.5,105.833 297.833,115.5 288.5,125.5C 276.888,124.003 265.221,123.336 253.5,123.5C 245.466,123.302 237.466,123.635 229.5,124.5C 241.131,112.368 252.965,100.368 265,88.5C 265.464,87.9056 265.631,87.2389 265.5,86.5 Z"/></g>
<g><path style="opacity:1" fill="#fdc86f" d="M 40.5,66.5 C 41.4972,66.4701 42.1639,66.9701 42.5,68C 40.291,73.6624 39.1243,79.4957 39,85.5C 39.5573,87.6147 40.3906,89.6147 41.5,91.5C 42.0016,92.521 42.6683,92.6877 43.5,92C 42.5494,91.2825 42.3828,90.4491 43,89.5C 45.2089,91.3734 47.0422,93.54 48.5,96C 48.2643,98.1177 48.2643,100.284 48.5,102.5C 48.5098,106.909 47.0098,107.242 44,103.5C 40.2373,106.461 37.904,105.461 37,100.5C 36.187,102.436 35.687,104.436 35.5,106.5C 33.2976,104.589 31.631,102.255 30.5,99.5C 32.0716,96.3995 32.7383,93.2328 32.5,90C 30.63,85.7815 30.2966,81.4482 31.5,77C 31.1639,75.9701 30.4972,75.4701 29.5,75.5C 32.2901,71.3717 35.9568,68.3717 40.5,66.5 Z"/></g>
<g><path style="opacity:1" fill="#fdc76e" d="M 470.5,66.5 C 477.398,70.7256 483.398,76.059 488.5,82.5C 486.983,82.4894 485.816,81.8228 485,80.5C 484.58,84.1914 484.08,87.8581 483.5,91.5C 482.122,97.2604 479.455,102.26 475.5,106.5C 475.313,104.436 474.813,102.436 474,100.5C 473.096,105.461 470.763,106.461 467,103.5C 463.99,107.242 462.49,106.909 462.5,102.5C 462.736,100.284 462.736,98.1177 462.5,96C 463.958,93.54 465.791,91.3734 468,89.5C 468.617,90.4491 468.451,91.2825 467.5,92C 468.332,92.6877 468.998,92.521 469.5,91.5C 470.609,89.6147 471.443,87.6147 472,85.5C 471.876,79.4957 470.709,73.6624 468.5,68C 468.836,66.9701 469.503,66.4701 470.5,66.5 Z"/></g>
<g><path style="opacity:0.993" fill="#ff8699" d="M 317.5,96.5 C 324.715,98.2382 331.715,100.572 338.5,103.5C 330.425,113.079 321.758,122.246 312.5,131C 311.906,131.464 311.239,131.631 310.5,131.5C 303.063,129.808 295.73,127.808 288.5,125.5C 297.833,115.5 307.5,105.833 317.5,96.5 Z"/></g>
<g><path style="opacity:0.996" fill="#fe87a1" d="M 199.5,94.5 C 190.104,110.951 179.937,126.951 169,142.5C 168.26,143.749 168.427,144.749 169.5,145.5C 168.167,146.5 166.833,147.5 165.5,148.5C 158.328,152.919 151.328,157.585 144.5,162.5C 144.062,162.565 143.728,162.399 143.5,162C 157.049,141.102 171.049,120.435 185.5,100C 185.272,99.6012 184.938,99.4346 184.5,99.5C 189.216,97.2613 194.216,95.5946 199.5,94.5 Z"/></g>
<g><path style="opacity:1" fill="#fdb555" d="M 29.5,75.5 C 30.4972,75.4701 31.1639,75.9701 31.5,77C 30.2966,81.4482 30.63,85.7815 32.5,90C 32.7383,93.2328 32.0716,96.3995 30.5,99.5C 29.9351,96.5791 28.7684,93.9124 27,91.5C 26.4408,102.901 24.9408,114.567 22.5,126.5C 20.736,124.722 18.736,123.389 16.5,122.5C 16.3758,120.39 15.2091,118.39 13,116.5C 12.1275,113.382 10.9608,110.382 9.5,107.5C 10.4563,105.3 9.78962,104.967 7.5,106.5C 12.5101,94.4944 19.8434,84.161 29.5,75.5 Z"/></g>
<g><path style="opacity:1" fill="#fdb453" d="M 488.5,82.5 C 494.998,89.4823 499.998,97.4823 503.5,106.5C 501.21,104.967 500.544,105.3 501.5,107.5C 500.213,112.911 497.547,117.411 493.5,121C 494.056,121.383 494.389,121.883 494.5,122.5C 492.264,123.389 490.264,124.722 488.5,126.5C 487.24,124.647 487.24,122.814 488.5,121C 487.039,119.024 486.706,117.024 487.5,115C 486.91,112.804 486.243,110.638 485.5,108.5C 485.723,107.033 486.056,105.533 486.5,104C 484.602,103.36 484.268,102.027 485.5,100C 485.088,96.9735 484.421,94.1401 483.5,91.5C 484.08,87.8581 484.58,84.1914 485,80.5C 485.816,81.8228 486.983,82.4894 488.5,82.5 Z"/></g>
<g><path style="opacity:0.998" fill="#fde88e" d="M 59.5,93.5 C 61.1927,94.4749 62.6927,95.8082 64,97.5C 65.0086,96.3418 66.3419,95.6752 68,95.5C 98.1563,97.0253 128.323,98.3586 158.5,99.5C 157.677,101.987 156.677,104.321 155.5,106.5C 125.195,105.052 94.8613,103.552 64.5,102C 62.587,100.276 60.587,98.7758 58.5,97.5C 58.8039,96.8501 59.1373,96.1835 59.5,95.5C 57.0752,94.3507 57.0752,93.684 59.5,93.5 Z"/></g>
<g><path style="opacity:0.993" fill="#fde88e" d="M 451.5,93.5 C 452.239,93.369 452.906,93.5357 453.5,94C 451.273,94.704 450.94,95.8706 452.5,97.5C 450.413,98.7758 448.413,100.276 446.5,102C 416.139,103.552 385.805,105.052 355.5,106.5C 354.305,104.249 353.305,101.915 352.5,99.5C 382.677,98.3586 412.844,97.0253 443,95.5C 444.658,95.6752 445.991,96.3418 447,97.5C 448.307,95.8082 449.807,94.4749 451.5,93.5 Z"/></g>
<g><path style="opacity:0.997" fill="#fde481" d="M 58.5,97.5 C 60.587,98.7758 62.587,100.276 64.5,102C 94.8613,103.552 125.195,105.052 155.5,106.5C 154.833,108.5 154.167,110.5 153.5,112.5C 152.833,112.5 152.5,112.833 152.5,113.5C 152.5,114.167 152.167,114.5 151.5,114.5C 149.708,113.691 147.708,113.191 145.5,113C 117.47,112.127 89.4703,110.794 61.5,109C 61,108.5 60.5,108 60,107.5C 59.6667,108.833 59.3333,110.167 59,111.5C 57.6003,110.252 56.1003,109.252 54.5,108.5C 53.1667,108.5 52.5,107.833 52.5,106.5C 52.8032,103.485 53.3032,100.485 54,97.5C 56,98.1667 57.3333,99.5 58,101.5C 58.49,100.207 58.6567,98.8734 58.5,97.5 Z"/></g>
<g><path style="opacity:0.997" fill="#fde481" d="M 452.5,97.5 C 452.343,98.8734 452.51,100.207 453,101.5C 453.667,99.5 455,98.1667 457,97.5C 457.697,100.485 458.197,103.485 458.5,106.5C 458.5,107.833 457.833,108.5 456.5,108.5C 454.9,109.252 453.4,110.252 452,111.5C 451.667,110.167 451.333,108.833 451,107.5C 450.5,108 450,108.5 449.5,109C 421.531,110.812 393.531,112.146 365.5,113C 363.292,113.191 361.292,113.691 359.5,114.5C 358.833,114.5 358.5,114.167 358.5,113.5C 358.5,112.833 358.167,112.5 357.5,112.5C 356.833,110.5 356.167,108.5 355.5,106.5C 385.805,105.052 416.139,103.552 446.5,102C 448.413,100.276 450.413,98.7758 452.5,97.5 Z"/></g>
<g><path style="opacity:0.999" fill="#f9638e" d="M 171.5,104.5 C 172.239,104.369 172.906,104.536 173.5,105C 131.209,167.747 89.0427,230.58 47,293.5C 46.6174,292.944 46.1174,292.611 45.5,292.5C 46.0857,286.366 46.7524,280.366 47.5,274.5C 46.1722,284.01 47.8388,285.177 52.5,278C 87.398,222.643 123.898,167.81 162,113.5C 162.765,111.934 162.598,110.601 161.5,109.5C 164.515,107.326 167.849,105.659 171.5,104.5 Z"/></g>
<g><path style="opacity:0.991" fill="#ff7e92" d="M 338.5,103.5 C 344.708,106.771 351.041,109.771 357.5,112.5C 358.167,112.5 358.5,112.833 358.5,113.5C 358.5,114.167 358.833,114.5 359.5,114.5C 360.846,116.537 362.18,118.537 363.5,120.5C 364.68,123.54 366.347,126.206 368.5,128.5C 370.167,131.167 371.833,133.833 373.5,136.5C 367.492,142.342 361.325,148.008 355,153.5C 349.904,150.369 344.737,147.369 339.5,144.5C 330.635,139.401 321.302,135.401 311.5,132.5C 310.833,132.5 310.5,132.167 310.5,131.5C 311.239,131.631 311.906,131.464 312.5,131C 321.758,122.246 330.425,113.079 338.5,103.5 Z"/></g>
<g><path style="opacity:1" fill="#fce175" d="M 151.5,114.5 C 150.154,116.537 148.82,118.537 147.5,120.5C 118.665,118.85 89.6655,117.35 60.5,116C 58.1136,114.807 55.7802,113.64 53.5,112.5C 53.8333,111.167 54.1667,109.833 54.5,108.5C 56.1003,109.252 57.6003,110.252 59,111.5C 59.3333,110.167 59.6667,108.833 60,107.5C 60.5,108 61,108.5 61.5,109C 89.4703,110.794 117.47,112.127 145.5,113C 147.708,113.191 149.708,113.691 151.5,114.5 Z"/></g>
<g><path style="opacity:1" fill="#fde175" d="M 456.5,108.5 C 456.833,109.833 457.167,111.167 457.5,112.5C 455.22,113.64 452.886,114.807 450.5,116C 421.335,117.35 392.335,118.85 363.5,120.5C 362.18,118.537 360.846,116.537 359.5,114.5C 361.292,113.691 363.292,113.191 365.5,113C 393.531,112.146 421.531,110.812 449.5,109C 450,108.5 450.5,108 451,107.5C 451.333,108.833 451.667,110.167 452,111.5C 453.4,110.252 454.9,109.252 456.5,108.5 Z"/></g>
<g><path style="opacity:1" fill="#fdce62" d="M 48.5,102.5 C 49.8333,103.833 51.1667,105.167 52.5,106.5C 52.5,107.833 53.1667,108.5 54.5,108.5C 54.1667,109.833 53.8333,111.167 53.5,112.5C 53.762,113.978 53.4287,115.311 52.5,116.5C 48.5951,112.415 47.2618,113.081 48.5,118.5C 48.1667,119.833 47.8333,121.167 47.5,122.5C 46.4168,122.461 45.4168,122.127 44.5,121.5C 43.3348,122.491 42.1681,123.491 41,124.5C 39.2355,123.368 37.4021,122.368 35.5,121.5C 36.6604,117.569 36.6604,112.569 35.5,106.5C 35.687,104.436 36.187,102.436 37,100.5C 37.904,105.461 40.2373,106.461 44,103.5C 47.0098,107.242 48.5098,106.909 48.5,102.5 Z"/></g>
<g><path style="opacity:1" fill="#fdce62" d="M 475.5,106.5 C 474.34,112.569 474.34,117.569 475.5,121.5C 473.598,122.368 471.765,123.368 470,124.5C 468.832,123.491 467.665,122.491 466.5,121.5C 465.583,122.127 464.583,122.461 463.5,122.5C 463.167,121.167 462.833,119.833 462.5,118.5C 463.738,113.081 462.405,112.415 458.5,116.5C 457.571,115.311 457.238,113.978 457.5,112.5C 457.167,111.167 456.833,109.833 456.5,108.5C 457.833,108.5 458.5,107.833 458.5,106.5C 459.833,105.167 461.167,103.833 462.5,102.5C 462.49,106.909 463.99,107.242 467,103.5C 470.763,106.461 473.096,105.461 474,100.5C 474.813,102.436 475.313,104.436 475.5,106.5 Z"/></g>
<g><path style="opacity:1" fill="#fcde68" d="M 53.5,112.5 C 55.7802,113.64 58.1136,114.807 60.5,116C 89.6655,117.35 118.665,118.85 147.5,120.5C 146.189,123.135 144.522,125.469 142.5,127.5C 113.987,126.044 85.3201,124.544 56.5,123C 53.7083,121.705 51.0416,120.205 48.5,118.5C 47.2618,113.081 48.5951,112.415 52.5,116.5C 53.4287,115.311 53.762,113.978 53.5,112.5 Z"/></g>
<g><path style="opacity:1" fill="#fcde69" d="M 457.5,112.5 C 457.238,113.978 457.571,115.311 458.5,116.5C 462.405,112.415 463.738,113.081 462.5,118.5C 460.05,119.777 457.717,121.277 455.5,123C 430.685,124.513 405.852,125.679 381,126.5C 376.443,126.509 372.276,127.175 368.5,128.5C 366.347,126.206 364.68,123.54 363.5,120.5C 392.335,118.85 421.335,117.35 450.5,116C 452.886,114.807 455.22,113.64 457.5,112.5 Z"/></g>
<g><path style="opacity:1" fill="#fe5c77" d="M 253.5,123.5 C 265.221,123.336 276.888,124.003 288.5,125.5C 295.73,127.808 303.063,129.808 310.5,131.5C 310.5,132.167 310.833,132.5 311.5,132.5C 311.631,133.239 311.464,133.906 311,134.5C 304.577,141.428 297.744,147.762 290.5,153.5C 289.167,153.5 287.833,153.5 286.5,153.5C 284.095,152.232 281.428,151.565 278.5,151.5C 260.769,148.609 243.102,148.943 225.5,152.5C 234.833,142.833 244.167,133.167 253.5,123.5 Z"/></g>
<g><path style="opacity:1" fill="#fcc050" d="M 30.5,99.5 C 31.631,102.255 33.2976,104.589 35.5,106.5C 36.6604,112.569 36.6604,117.569 35.5,121.5C 35.7394,123.467 35.4061,125.301 34.5,127C 36.5751,128.581 36.5751,130.415 34.5,132.5C 32.5441,131.452 30.5441,130.952 28.5,131C 28.9222,134.567 29.2555,138.067 29.5,141.5C 25.4241,141.32 21.5907,140.32 18,138.5C 17.3292,139.252 16.4959,139.586 15.5,139.5C 15.585,135.304 16.2516,130.971 17.5,126.5C 17.2124,125.139 16.879,123.806 16.5,122.5C 18.736,123.389 20.736,124.722 22.5,126.5C 24.9408,114.567 26.4408,102.901 27,91.5C 28.7684,93.9124 29.9351,96.5791 30.5,99.5 Z"/></g>
<g><path style="opacity:1" fill="#fcc050" d="M 483.5,91.5 C 484.421,94.1401 485.088,96.9735 485.5,100C 484.268,102.027 484.602,103.36 486.5,104C 486.056,105.533 485.723,107.033 485.5,108.5C 486.243,110.638 486.91,112.804 487.5,115C 486.706,117.024 487.039,119.024 488.5,121C 487.24,122.814 487.24,124.647 488.5,126.5C 490.264,124.722 492.264,123.389 494.5,122.5C 494.121,123.806 493.788,125.139 493.5,126.5C 494.748,130.971 495.415,135.304 495.5,139.5C 494.504,139.586 493.671,139.252 493,138.5C 489.409,140.32 485.576,141.32 481.5,141.5C 481.744,138.067 482.078,134.567 482.5,131C 480.456,130.952 478.456,131.452 476.5,132.5C 474.425,130.415 474.425,128.581 476.5,127C 475.594,125.301 475.261,123.467 475.5,121.5C 474.34,117.569 474.34,112.569 475.5,106.5C 479.455,102.26 482.122,97.2604 483.5,91.5 Z"/></g>
<g><path style="opacity:1" fill="#fe526f" d="M 253.5,123.5 C 244.167,133.167 234.833,142.833 225.5,152.5C 201.6,157.284 180.6,167.617 162.5,183.5C 138.652,202.554 122.485,226.887 114,256.5C 111.921,264.064 110.421,271.731 109.5,279.5C 108.949,282.807 108.616,286.14 108.5,289.5C 103.369,294.13 98.3687,298.963 93.5,304C 95.5,304.333 97.5,304.667 99.5,305C 96.8333,305.333 94.1667,305.667 91.5,306C 93.5,306.333 95.5,306.667 97.5,307C 93.7987,307.59 90.1321,307.923 86.5,308C 86.8333,307.667 87.1667,307.333 87.5,307C 85.8659,306.506 84.1992,306.34 82.5,306.5C 82.5,299.5 82.5,292.5 82.5,285.5C 82.6973,278.12 83.3639,270.787 84.5,263.5C 85.3745,260.465 86.3745,257.465 87.5,254.5C 87.369,255.239 87.5357,255.906 88,256.5C 114.159,221.511 139.826,186.178 165,150.5C 167.665,149.526 167.831,148.859 165.5,148.5C 166.833,147.5 168.167,146.5 169.5,145.5C 188.227,134.924 208.227,127.924 229.5,124.5C 237.466,123.635 245.466,123.302 253.5,123.5 Z"/></g>
<g><path style="opacity:1" fill="#fcd954" d="M 48.5,118.5 C 51.0416,120.205 53.7083,121.705 56.5,123C 85.3201,124.544 113.987,126.044 142.5,127.5C 140.145,132.88 136.812,137.546 132.5,141.5C 104.643,139.836 76.6432,138.17 48.5,136.5C 48.9175,135.778 49.5842,135.278 50.5,135C 49.287,131.384 48.287,127.718 47.5,124C 50.0972,123.221 50.0972,122.721 47.5,122.5C 47.8333,121.167 48.1667,119.833 48.5,118.5 Z"/></g>
<g><path style="opacity:1" fill="#fe6780" d="M 311.5,132.5 C 321.302,135.401 330.635,139.401 339.5,144.5C 333.891,151.778 327.558,158.444 320.5,164.5C 316.931,162.881 313.264,161.548 309.5,160.5C 303.375,157.57 297.042,155.237 290.5,153.5C 297.744,147.762 304.577,141.428 311,134.5C 311.464,133.906 311.631,133.239 311.5,132.5 Z"/></g>
<g><path style="opacity:1" fill="#fcda54" d="M 462.5,118.5 C 462.833,119.833 463.167,121.167 463.5,122.5C 460.903,122.721 460.903,123.221 463.5,124C 462.713,127.718 461.713,131.384 460.5,135C 461.416,135.278 462.082,135.778 462.5,136.5C 434.357,138.17 406.357,139.836 378.5,141.5C 376.605,140.027 374.939,138.36 373.5,136.5C 371.833,133.833 370.167,131.167 368.5,128.5C 372.276,127.175 376.443,126.509 381,126.5C 405.852,125.679 430.685,124.513 455.5,123C 457.717,121.277 460.05,119.777 462.5,118.5 Z"/></g>
<g><path style="opacity:1" fill="#fccb48" d="M 35.5,121.5 C 37.4021,122.368 39.2355,123.368 41,124.5C 42.1681,123.491 43.3348,122.491 44.5,121.5C 45.4168,122.127 46.4168,122.461 47.5,122.5C 50.0972,122.721 50.0972,123.221 47.5,124C 48.287,127.718 49.287,131.384 50.5,135C 49.5842,135.278 48.9175,135.778 48.5,136.5C 46.6089,135.464 44.7755,135.464 43,136.5C 43.2068,138.751 43.3735,141.085 43.5,143.5C 41.1667,142.167 38.8333,142.167 36.5,143.5C 36.2172,142.711 35.7172,142.044 35,141.5C 33.2245,142.536 31.3911,142.536 29.5,141.5C 29.2555,138.067 28.9222,134.567 28.5,131C 30.5441,130.952 32.5441,131.452 34.5,132.5C 36.5751,130.415 36.5751,128.581 34.5,127C 35.4061,125.301 35.7394,123.467 35.5,121.5 Z"/></g>
<g><path style="opacity:1" fill="#fccb48" d="M 475.5,121.5 C 475.261,123.467 475.594,125.301 476.5,127C 474.425,128.581 474.425,130.415 476.5,132.5C 478.456,131.452 480.456,130.952 482.5,131C 482.078,134.567 481.744,138.067 481.5,141.5C 479.609,142.536 477.776,142.536 476,141.5C 475.283,142.044 474.783,142.711 474.5,143.5C 472.167,142.167 469.833,142.167 467.5,143.5C 467.627,141.085 467.793,138.751 468,136.5C 466.224,135.464 464.391,135.464 462.5,136.5C 462.082,135.778 461.416,135.278 460.5,135C 461.713,131.384 462.713,127.718 463.5,124C 460.903,123.221 460.903,122.721 463.5,122.5C 464.583,122.461 465.583,122.127 466.5,121.5C 467.665,122.491 468.832,123.491 470,124.5C 471.765,123.368 473.598,122.368 475.5,121.5 Z"/></g>
<g><path style="opacity:1" fill="#fdaf3c" d="M 16.5,122.5 C 16.879,123.806 17.2124,125.139 17.5,126.5C 16.2516,130.971 15.585,135.304 15.5,139.5C 15.2857,144.212 14.7857,149.212 14,154.5C 12.2494,153.826 10.5827,153.493 9,153.5C 8.0053,154.066 7.17197,154.733 6.5,155.5C 5.88258,155.389 5.38258,155.056 5,154.5C 3.89887,156.394 2.56554,157.061 1,156.5C 0.801916,154.618 0.301916,152.952 -0.5,151.5C -0.5,144.833 -0.5,138.167 -0.5,131.5C 1.08349,122.837 3.75016,114.504 7.5,106.5C 9.78962,104.967 10.4563,105.3 9.5,107.5C 10.9608,110.382 12.1275,113.382 13,116.5C 15.2091,118.39 16.3758,120.39 16.5,122.5 Z"/></g>
<g><path style="opacity:0.997" fill="#fdae3c" d="M 503.5,106.5 C 507.25,114.504 509.917,122.837 511.5,131.5C 511.5,137.833 511.5,144.167 511.5,150.5C 510.691,152.292 510.191,154.292 510,156.5C 508.434,157.061 507.101,156.394 506,154.5C 505.617,155.056 505.117,155.389 504.5,155.5C 503.828,154.733 502.995,154.066 502,153.5C 500.417,153.493 498.751,153.826 497,154.5C 496.214,149.212 495.714,144.212 495.5,139.5C 495.415,135.304 494.748,130.971 493.5,126.5C 493.788,125.139 494.121,123.806 494.5,122.5C 494.389,121.883 494.056,121.383 493.5,121C 497.547,117.411 500.213,112.911 501.5,107.5C 500.544,105.3 501.21,104.967 503.5,106.5 Z"/></g>
<g><path style="opacity:1" fill="#fe7289" d="M 373.5,136.5 C 374.939,138.36 376.605,140.027 378.5,141.5C 382.155,146.486 386.155,151.153 390.5,155.5C 393.167,158.5 395.833,161.5 398.5,164.5C 397.127,164.343 395.793,164.51 394.5,165C 390.318,169.015 386.318,173.182 382.5,177.5C 387.917,183.359 392.584,189.692 396.5,196.5C 389.775,202.223 383.775,208.556 378.5,215.5C 370.443,205.267 361.776,195.433 352.5,186C 346.878,181.198 340.878,177.031 334.5,173.5C 330.173,170.001 325.506,167.001 320.5,164.5C 327.558,158.444 333.891,151.778 339.5,144.5C 344.737,147.369 349.904,150.369 355,153.5C 361.325,148.008 367.492,142.342 373.5,136.5 Z"/></g>
<g><path style="opacity:1" fill="#fbd33b" d="M 48.5,136.5 C 76.6432,138.17 104.643,139.836 132.5,141.5C 131.221,144.112 129.555,146.445 127.5,148.5C 125.527,151.139 123.194,153.473 120.5,155.5C 118.369,154.686 116.036,154.186 113.5,154C 90.8248,153.186 68.1581,152.186 45.5,151C 43.1088,149.691 43.1088,148.691 45.5,148C 44.9011,146.378 44.2344,144.878 43.5,143.5C 43.3735,141.085 43.2068,138.751 43,136.5C 44.7755,135.464 46.6089,135.464 48.5,136.5 Z"/></g>
<g><path style="opacity:1" fill="#fbd33b" d="M 467.5,143.5 C 466.766,144.878 466.099,146.378 465.5,148C 467.891,148.691 467.891,149.691 465.5,151C 442.842,152.186 420.175,153.186 397.5,154C 394.964,154.186 392.631,154.686 390.5,155.5C 386.155,151.153 382.155,146.486 378.5,141.5C 406.357,139.836 434.357,138.17 462.5,136.5C 464.391,135.464 466.224,135.464 468,136.5C 467.793,138.751 467.627,141.085 467.5,143.5 Z"/></g>
<g><path style="opacity:1" fill="#cebfe4" d="M 278.5,151.5 C 281.428,151.565 284.095,152.232 286.5,153.5C 279.475,156.291 272.475,159.291 265.5,162.5C 264.522,162.023 263.689,161.357 263,160.5C 262.02,161.981 260.853,163.315 259.5,164.5C 245.504,168.887 231.671,173.554 218,178.5C 217.333,177.833 216.667,177.167 216,176.5C 214.471,177.583 212.971,178.583 211.5,179.5C 209.93,179.306 208.43,179.306 207,179.5C 205.684,176.972 204.517,176.972 203.5,179.5C 202.017,177.054 200.851,177.388 200,180.5C 196.642,180.142 193.642,180.142 191,180.5C 188.481,182.347 185.814,184.014 183,185.5C 182.259,184.359 181.425,184.359 180.5,185.5C 177.146,190.308 173.146,193.475 168.5,195C 168.833,195.333 169.167,195.667 169.5,196C 165.468,199.855 162.468,204.355 160.5,209.5C 159.5,209.5 158.5,209.5 157.5,209.5C 157.414,211.677 156.747,213.677 155.5,215.5C 154.096,217.913 152.43,220.08 150.5,222C 150.833,222.333 151.167,222.667 151.5,223C 149.45,224.636 148.45,226.802 148.5,229.5C 143.849,230.174 142.349,232.841 144,237.5C 145.145,238.636 146.312,239.636 147.5,240.5C 143.775,245.457 141.108,250.624 139.5,256C 137.976,258.694 136.31,261.36 134.5,264C 135.061,265.566 134.394,266.899 132.5,268C 132.833,268.333 133.167,268.667 133.5,269C 127.246,277.407 122.746,286.24 120,295.5C 116.553,301.396 113.386,307.396 110.5,313.5C 109.523,310.713 109.19,307.713 109.5,304.5C 110.349,297.451 112.516,290.785 116,284.5C 124.744,266.013 133.744,247.679 143,229.5C 148.401,219.701 154.068,210.035 160,200.5C 167.703,189.302 177.536,180.302 189.5,173.5C 190.962,174.471 192.295,174.138 193.5,172.5C 194.842,173.902 195.676,173.569 196,171.5C 198.55,171.323 200.883,171.657 203,172.5C 205.316,170.541 207.316,170.541 209,172.5C 209.308,171.692 209.808,171.025 210.5,170.5C 214.326,170.746 218.159,171.079 222,171.5C 222.691,169.109 223.691,169.109 225,171.5C 230.613,169.987 235.613,167.987 240,165.5C 241.147,166.458 242.147,166.125 243,164.5C 244.147,165.458 245.147,165.125 246,163.5C 246.333,163.833 246.667,164.167 247,164.5C 257.347,159.666 267.847,155.332 278.5,151.5 Z"/></g>
<g><path style="opacity:1" fill="#d2c7e8" d="M 286.5,153.5 C 287.833,153.5 289.167,153.5 290.5,153.5C 297.042,155.237 303.375,157.57 309.5,160.5C 303.982,161.421 299.149,163.754 295,167.5C 294.667,167.167 294.333,166.833 294,166.5C 287.646,169.261 281.812,171.428 276.5,173C 276.833,173.333 277.167,173.667 277.5,174C 272.237,175.815 266.903,177.315 261.5,178.5C 261.821,183.695 261.487,188.695 260.5,193.5C 260.666,185.826 260.5,178.159 260,170.5C 257,166.5 254,166.5 251,170.5C 250.5,178.159 250.334,185.826 250.5,193.5C 249.834,190.642 249.167,187.642 248.5,184.5C 246.189,185.214 244.022,186.214 242,187.5C 241.667,187.167 241.333,186.833 241,186.5C 239.903,188.053 238.57,189.386 237,190.5C 235.667,190.5 234.333,190.5 233,190.5C 229.499,192.584 226.166,194.251 223,195.5C 221.636,194.742 220.469,195.242 219.5,197C 217.129,197.735 214.795,198.568 212.5,199.5C 211.833,199.167 211.167,198.833 210.5,198.5C 210.704,199.529 210.204,200.529 209,201.5C 208.399,199.641 207.566,199.308 206.5,200.5C 203.315,195.313 199.982,190.146 196.5,185C 190.556,183.28 188.056,185.447 189,191.5C 189.662,192.984 190.496,194.317 191.5,195.5C 189.28,197.218 186.947,198.052 184.5,198C 185.866,200.438 185.366,200.938 183,199.5C 177.602,200.996 173.935,204.329 172,209.5C 171.667,208.833 171.333,208.167 171,207.5C 170.002,210.234 168.168,211.901 165.5,212.5C 164.118,216.138 162.285,220.138 160,224.5C 159.25,225.126 158.416,225.626 157.5,226C 157.833,226.333 158.167,226.667 158.5,227C 155.456,227.359 155.122,228.026 157.5,229C 156.5,229.333 155.5,229.667 154.5,230C 155.252,230.671 155.586,231.504 155.5,232.5C 153.287,231.227 150.954,230.227 148.5,229.5C 148.45,226.802 149.45,224.636 151.5,223C 151.167,222.667 150.833,222.333 150.5,222C 152.43,220.08 154.096,217.913 155.5,215.5C 156.747,213.677 157.414,211.677 157.5,209.5C 158.5,209.5 159.5,209.5 160.5,209.5C 162.468,204.355 165.468,199.855 169.5,196C 169.167,195.667 168.833,195.333 168.5,195C 173.146,193.475 177.146,190.308 180.5,185.5C 181.425,184.359 182.259,184.359 183,185.5C 185.814,184.014 188.481,182.347 191,180.5C 193.642,180.142 196.642,180.142 200,180.5C 200.851,177.388 202.017,177.054 203.5,179.5C 204.517,176.972 205.684,176.972 207,179.5C 208.43,179.306 209.93,179.306 211.5,179.5C 212.971,178.583 214.471,177.583 216,176.5C 216.667,177.167 217.333,177.833 218,178.5C 231.671,173.554 245.504,168.887 259.5,164.5C 260.853,163.315 262.02,161.981 263,160.5C 263.689,161.357 264.522,162.023 265.5,162.5C 272.475,159.291 279.475,156.291 286.5,153.5 Z"/></g>
<g><path style="opacity:1" fill="#fe426a" d="M 165.5,148.5 C 167.831,148.859 167.665,149.526 165,150.5C 139.826,186.178 114.159,221.511 88,256.5C 87.5357,255.906 87.369,255.239 87.5,254.5C 88.1667,250.833 88.8333,247.167 89.5,243.5C 100.625,211.577 118.958,184.577 144.5,162.5C 151.328,157.585 158.328,152.919 165.5,148.5 Z"/></g>
<g><path style="opacity:1" fill="#fbcc27" d="M 43.5,143.5 C 44.2344,144.878 44.9011,146.378 45.5,148C 43.1088,148.691 43.1088,149.691 45.5,151C 68.1581,152.186 90.8248,153.186 113.5,154C 116.036,154.186 118.369,154.686 120.5,155.5C 117.5,159.167 114.167,162.5 110.5,165.5C 90.4844,164.846 70.8177,163.512 51.5,161.5C 47.6653,162.285 44.1653,161.285 41,158.5C 40.6667,158.833 40.3333,159.167 40,159.5C 38.5186,156.89 37.3519,154.223 36.5,151.5C 36.0798,149.326 36.0798,147.326 36.5,145.5C 34.0752,144.351 34.0752,143.684 36.5,143.5C 38.8333,142.167 41.1667,142.167 43.5,143.5 Z"/></g>
<g><path style="opacity:1" fill="#fbcc27" d="M 474.5,143.5 C 476.925,143.684 476.925,144.351 474.5,145.5C 474.92,147.326 474.92,149.326 474.5,151.5C 473.648,154.223 472.481,156.89 471,159.5C 470.667,159.167 470.333,158.833 470,158.5C 466.835,161.285 463.335,162.285 459.5,161.5C 440.182,163.512 420.516,164.846 400.5,165.5C 399.833,165.167 399.167,164.833 398.5,164.5C 395.833,161.5 393.167,158.5 390.5,155.5C 392.631,154.686 394.964,154.186 397.5,154C 420.175,153.186 442.842,152.186 465.5,151C 467.891,149.691 467.891,148.691 465.5,148C 466.099,146.378 466.766,144.878 467.5,143.5C 469.833,142.167 472.167,142.167 474.5,143.5 Z"/></g>
<g><path style="opacity:1" fill="#c8b3dd" d="M 278.5,151.5 C 267.847,155.332 257.347,159.666 247,164.5C 246.667,164.167 246.333,163.833 246,163.5C 245.147,165.125 244.147,165.458 243,164.5C 242.147,166.125 241.147,166.458 240,165.5C 235.613,167.987 230.613,169.987 225,171.5C 223.691,169.109 222.691,169.109 222,171.5C 218.159,171.079 214.326,170.746 210.5,170.5C 209.808,171.025 209.308,171.692 209,172.5C 207.316,170.541 205.316,170.541 203,172.5C 200.883,171.657 198.55,171.323 196,171.5C 195.676,173.569 194.842,173.902 193.5,172.5C 192.295,174.138 190.962,174.471 189.5,173.5C 177.536,180.302 167.703,189.302 160,200.5C 154.068,210.035 148.401,219.701 143,229.5C 133.744,247.679 124.744,266.013 116,284.5C 112.516,290.785 110.349,297.451 109.5,304.5C 108.513,299.695 108.179,294.695 108.5,289.5C 108.616,286.14 108.949,282.807 109.5,279.5C 110.117,279.611 110.617,279.944 111,280.5C 119.667,262.5 128.333,244.5 137,226.5C 145.186,211.378 153.686,197.044 162.5,183.5C 180.6,167.617 201.6,157.284 225.5,152.5C 243.102,148.943 260.769,148.609 278.5,151.5 Z"/></g>
<g><path style="opacity:1" fill="#fbc01f" d="M 36.5,151.5 C 37.3519,154.223 38.5186,156.89 40,159.5C 40.3333,159.167 40.6667,158.833 41,158.5C 44.1653,161.285 47.6653,162.285 51.5,161.5C 70.8177,163.512 90.4844,164.846 110.5,165.5C 109.5,166.833 108.5,168.167 107.5,169.5C 105.833,170.833 104.167,172.167 102.5,173.5C 82.3833,172.817 62.3833,171.65 42.5,170C 38.9446,167.944 34.9446,165.944 30.5,164C 27.144,160.642 24.144,156.975 21.5,153C 26.6155,152.619 31.6155,152.119 36.5,151.5 Z"/></g>
<g><path style="opacity:1" fill="#dcd6ef" d="M 309.5,160.5 C 313.264,161.548 316.931,162.881 320.5,164.5C 325.506,167.001 330.173,170.001 334.5,173.5C 331.737,173.744 329.571,175.077 328,177.5C 326.667,177.5 325.333,177.5 324,177.5C 322.716,178.572 322.383,179.905 323,181.5C 321.605,180.185 320.605,180.519 320,182.5C 317.573,181.433 317.073,182.1 318.5,184.5C 315.163,184.187 312.829,185.52 311.5,188.5C 311.631,187.624 311.298,186.957 310.5,186.5C 309.28,187.711 308.113,187.711 307,186.5C 306.395,188.481 305.395,188.815 304,187.5C 303.581,188.672 302.915,189.672 302,190.5C 300.667,190.5 299.333,190.5 298,190.5C 293.562,194.323 288.395,196.823 282.5,198C 279.657,200.511 277.157,203.344 275,206.5C 273.333,206.167 271.667,205.833 270,205.5C 269.544,206.744 270.044,207.577 271.5,208C 270.965,210.109 269.965,210.609 268.5,209.5C 267.808,210.025 267.308,210.692 267,211.5C 265.403,211.36 263.903,211.36 262.5,211.5C 261.483,214.028 260.316,214.028 259,211.5C 257.561,213.275 256.561,215.275 256,217.5C 255.586,217.043 255.086,216.709 254.5,216.5C 251.329,219.172 248.495,222.172 246,225.5C 245.667,225.167 245.333,224.833 245,224.5C 243.333,225.5 241.667,226.5 240,227.5C 238.442,226.655 237.442,227.321 237,229.5C 236.667,228.833 236.333,228.167 236,227.5C 233.06,230.543 230.06,233.543 227,236.5C 226.667,236.167 226.333,235.833 226,235.5C 225.391,238.61 223.557,240.61 220.5,241.5C 219.917,243.002 219.084,244.335 218,245.5C 216.667,245.5 215.333,245.5 214,245.5C 213.085,246.328 212.419,247.328 212,248.5C 210.84,246.203 209.84,246.536 209,249.5C 207.221,246.724 206.221,247.057 206,250.5C 205.667,250.167 205.333,249.833 205,249.5C 191.904,262.596 178.737,275.763 165.5,289C 165.833,289.333 166.167,289.667 166.5,290C 154.326,290.169 142.326,290.669 130.5,291.5C 129.29,291.932 128.29,292.599 127.5,293.5C 126.28,295.284 126.28,296.95 127.5,298.5C 127.5,299.167 127.833,299.5 128.5,299.5C 128.833,300.5 129.5,301.167 130.5,301.5C 131.833,303.5 133.5,305.167 135.5,306.5C 136.5,308.167 137.833,309.5 139.5,310.5C 141.167,312.833 143.167,314.833 145.5,316.5C 146.167,317.5 146.833,318.5 147.5,319.5C 146.504,319.586 145.671,319.252 145,318.5C 144.5,319.667 143.667,320.5 142.5,321C 142.833,321.333 143.167,321.667 143.5,322C 141.956,322.29 140.623,322.956 139.5,324C 140.517,325.049 140.684,326.216 140,327.5C 139.667,326.833 139.333,326.167 139,325.5C 136.112,334.269 130.778,341.936 123,348.5C 121.664,350.525 121.164,352.525 121.5,354.5C 115.199,341.636 111.532,327.969 110.5,313.5C 113.386,307.396 116.553,301.396 120,295.5C 122.746,286.24 127.246,277.407 133.5,269C 133.167,268.667 132.833,268.333 132.5,268C 134.394,266.899 135.061,265.566 134.5,264C 136.31,261.36 137.976,258.694 139.5,256C 141.108,250.624 143.775,245.457 147.5,240.5C 152.938,243.053 158.271,245.887 163.5,249C 165.134,249.494 166.801,249.66 168.5,249.5C 169.268,250.263 169.768,251.263 170,252.5C 170.333,251.5 170.667,250.5 171,249.5C 172.281,249.619 173.448,249.119 174.5,248C 173.253,246.542 173.253,245.042 174.5,243.5C 176.369,242.376 178.369,241.543 180.5,241C 179.167,240.667 177.833,240.333 176.5,240C 178.246,239.529 179.913,238.862 181.5,238C 178.992,233.556 179.492,233.389 183,237.5C 185.213,235.458 185.88,233.125 185,230.5C 186.597,230.64 188.097,230.64 189.5,230.5C 190.386,229.675 190.719,228.675 190.5,227.5C 192.451,227.773 193.951,227.107 195,225.5C 195.333,225.833 195.667,226.167 196,226.5C 197.044,225.377 197.71,224.044 198,222.5C 199.049,223.517 200.216,223.684 201.5,223C 200.346,222.086 200.513,221.253 202,220.5C 202.308,221.308 202.808,221.975 203.5,222.5C 203.833,221.833 204.167,221.167 204.5,220.5C 205.086,220.709 205.586,221.043 206,221.5C 209.331,219.506 212.331,216.506 215,212.5C 215.414,212.957 215.914,213.291 216.5,213.5C 220.591,212.307 224.425,210.641 228,208.5C 228.333,208.833 228.667,209.167 229,209.5C 230.713,208.122 232.047,206.455 233,204.5C 233.333,205.167 233.667,205.833 234,206.5C 236.567,204.695 239.401,203.362 242.5,202.5C 243.251,201.624 243.751,200.624 244,199.5C 244.414,199.957 244.914,200.291 245.5,200.5C 246.906,199.049 248.406,197.716 250,196.5C 250.838,197.999 251.671,198.332 252.5,197.5C 254.527,197.662 256.527,197.495 258.5,197C 259.823,196.184 260.489,195.017 260.5,193.5C 261.487,188.695 261.821,183.695 261.5,178.5C 266.903,177.315 272.237,175.815 277.5,174C 277.167,173.667 276.833,173.333 276.5,173C 281.812,171.428 287.646,169.261 294,166.5C 294.333,166.833 294.667,167.167 295,167.5C 299.149,163.754 303.982,161.421 309.5,160.5 Z"/></g>
<g><path style="opacity:1" fill="#fbc01f" d="M 474.5,151.5 C 479.385,152.119 484.385,152.619 489.5,153C 486.654,158.773 482.321,162.773 476.5,165C 471.027,170.062 464.527,171.896 457,170.5C 440.57,172.122 424.403,173.122 408.5,173.5C 405.5,171.167 402.833,168.5 400.5,165.5C 420.516,164.846 440.182,163.512 459.5,161.5C 463.335,162.285 466.835,161.285 470,158.5C 470.333,158.833 470.667,159.167 471,159.5C 472.481,156.89 473.648,154.223 474.5,151.5 Z"/></g>
<g><path style="opacity:1" fill="#fca924" d="M -0.5,151.5 C 0.301916,152.952 0.801916,154.618 1,156.5C 2.56554,157.061 3.89887,156.394 5,154.5C 5.38258,155.056 5.88258,155.389 6.5,155.5C 7.22788,157.735 8.56121,159.568 10.5,161C 10.1667,161.333 9.83333,161.667 9.5,162C 14.9757,165.914 20.309,170.081 25.5,174.5C 26.086,174.291 26.586,173.957 27,173.5C 30.8082,175.929 34.6415,178.263 38.5,180.5C 41.7385,180.786 44.9052,180.786 48,180.5C 50.6067,181.27 53.2734,181.937 56,182.5C 58.4067,181.804 60.7401,181.471 63,181.5C 64.3333,182.167 65.6667,182.833 67,183.5C 70.6667,183.167 74.3333,182.833 78,182.5C 79.3333,183.167 80.6667,183.833 82,184.5C 84.7439,184.786 87.5772,184.453 90.5,183.5C 85.7217,187.94 80.3883,191.607 74.5,194.5C 70.2366,195.476 66.0699,195.809 62,195.5C 60.6667,194.833 59.3333,194.167 58,193.5C 57.6667,194.167 57.3333,194.833 57,195.5C 52.3163,194.593 47.6496,193.593 43,192.5C 42.6667,193.167 42.3333,193.833 42,194.5C 32.7904,192.355 23.457,189.689 14,186.5C 13.3333,187.833 12.6667,187.833 12,186.5C 11.5357,187.094 11.369,187.761 11.5,188.5C 9.19039,185.898 7.35706,182.898 6,179.5C 3.34685,172.528 1.18019,165.528 -0.5,158.5C -0.5,156.167 -0.5,153.833 -0.5,151.5 Z"/></g>
<g><path style="opacity:1" fill="#f24b7f" d="M 48.5,266.5 C 48.8296,259.19 50.163,252.19 52.5,245.5C 52.2254,250.22 53.0588,250.554 55,246.5C 56.1475,247.458 57.1475,247.125 58,245.5C 74.7958,220.073 91.9625,194.907 109.5,170C 108.906,169.536 108.239,169.369 107.5,169.5C 108.5,168.167 109.5,166.833 110.5,165.5C 114.167,162.5 117.5,159.167 120.5,155.5C 123.194,153.473 125.527,151.139 127.5,148.5C 128.117,148.611 128.617,148.944 129,149.5C 130.29,147.208 131.957,145.208 134,143.5C 106.085,186.206 77.7519,228.873 49,271.5C 48.5065,269.866 48.3398,268.199 48.5,266.5 Z"/></g>
<g><path style="opacity:1" fill="#fca924" d="M 511.5,150.5 C 511.5,153.167 511.5,155.833 511.5,158.5C 510.027,163.711 508.527,169.044 507,174.5C 505.249,179.674 502.749,184.341 499.5,188.5C 499.631,187.761 499.464,187.094 499,186.5C 498.333,187.833 497.667,187.833 497,186.5C 487.543,189.689 478.21,192.355 469,194.5C 468.667,193.833 468.333,193.167 468,192.5C 463.35,193.593 458.684,194.593 454,195.5C 453.667,194.833 453.333,194.167 453,193.5C 449.493,195.666 445.66,196.833 441.5,197C 442.056,197.383 442.389,197.883 442.5,198.5C 442.167,198.5 441.833,198.5 441.5,198.5C 434.198,193.856 427.198,188.856 420.5,183.5C 423.423,184.453 426.256,184.786 429,184.5C 430.333,183.833 431.667,183.167 433,182.5C 436.667,182.833 440.333,183.167 444,183.5C 445.333,182.833 446.667,182.167 448,181.5C 450.26,181.471 452.593,181.804 455,182.5C 460.02,180.725 464.853,180.392 469.5,181.5C 470.192,180.975 470.692,180.308 471,179.5C 471.561,180.022 472.228,180.355 473,180.5C 476.633,178.17 480.3,175.837 484,173.5C 484.414,173.957 484.914,174.291 485.5,174.5C 490.691,170.081 496.024,165.914 501.5,162C 501.167,161.667 500.833,161.333 500.5,161C 502.439,159.568 503.772,157.735 504.5,155.5C 505.117,155.389 505.617,155.056 506,154.5C 507.101,156.394 508.434,157.061 510,156.5C 510.191,154.292 510.691,152.292 511.5,150.5 Z"/></g>
<g><path style="opacity:1" fill="#fbb420" d="M 29.5,141.5 C 31.3911,142.536 33.2245,142.536 35,141.5C 35.7172,142.044 36.2172,142.711 36.5,143.5C 34.0752,143.684 34.0752,144.351 36.5,145.5C 36.0798,147.326 36.0798,149.326 36.5,151.5C 31.6155,152.119 26.6155,152.619 21.5,153C 24.144,156.975 27.144,160.642 30.5,164C 34.9446,165.944 38.9446,167.944 42.5,170C 62.3833,171.65 82.3833,172.817 102.5,173.5C 98.817,177.18 94.817,180.514 90.5,183.5C 87.5772,184.453 84.7439,184.786 82,184.5C 80.6667,183.833 79.3333,183.167 78,182.5C 74.3333,182.833 70.6667,183.167 67,183.5C 65.6667,182.833 64.3333,182.167 63,181.5C 60.7401,181.471 58.4067,181.804 56,182.5C 53.2734,181.937 50.6067,181.27 48,180.5C 44.9052,180.786 41.7385,180.786 38.5,180.5C 34.6415,178.263 30.8082,175.929 27,173.5C 26.586,173.957 26.086,174.291 25.5,174.5C 20.309,170.081 14.9757,165.914 9.5,162C 9.83333,161.667 10.1667,161.333 10.5,161C 8.56121,159.568 7.22788,157.735 6.5,155.5C 7.17197,154.733 8.0053,154.066 9,153.5C 10.5827,153.493 12.2494,153.826 14,154.5C 14.7857,149.212 15.2857,144.212 15.5,139.5C 16.4959,139.586 17.3292,139.252 18,138.5C 21.5907,140.32 25.4241,141.32 29.5,141.5 Z"/></g>
<g><path style="opacity:1" fill="#fbb420" d="M 495.5,139.5 C 495.714,144.212 496.214,149.212 497,154.5C 498.751,153.826 500.417,153.493 502,153.5C 502.995,154.066 503.828,154.733 504.5,155.5C 503.772,157.735 502.439,159.568 500.5,161C 500.833,161.333 501.167,161.667 501.5,162C 496.024,165.914 490.691,170.081 485.5,174.5C 484.914,174.291 484.414,173.957 484,173.5C 480.3,175.837 476.633,178.17 473,180.5C 472.228,180.355 471.561,180.022 471,179.5C 470.692,180.308 470.192,180.975 469.5,181.5C 464.853,180.392 460.02,180.725 455,182.5C 452.593,181.804 450.26,181.471 448,181.5C 446.667,182.167 445.333,182.833 444,183.5C 440.333,183.167 436.667,182.833 433,182.5C 431.667,183.167 430.333,183.833 429,184.5C 426.256,184.786 423.423,184.453 420.5,183.5C 419.078,182.075 417.411,181.075 415.5,180.5C 414.5,178.833 413.167,177.5 411.5,176.5C 410.694,175.272 409.694,174.272 408.5,173.5C 424.403,173.122 440.57,172.122 457,170.5C 464.527,171.896 471.027,170.062 476.5,165C 482.321,162.773 486.654,158.773 489.5,153C 484.385,152.619 479.385,152.119 474.5,151.5C 474.92,149.326 474.92,147.326 474.5,145.5C 476.925,144.351 476.925,143.684 474.5,143.5C 474.783,142.711 475.283,142.044 476,141.5C 477.776,142.536 479.609,142.536 481.5,141.5C 485.576,141.32 489.409,140.32 493,138.5C 493.671,139.252 494.504,139.586 495.5,139.5 Z"/></g>
<g><path style="opacity:1" fill="#fe617e" d="M 398.5,164.5 C 399.167,164.833 399.833,165.167 400.5,165.5C 402.833,168.5 405.5,171.167 408.5,173.5C 409.694,174.272 410.694,175.272 411.5,176.5C 412.028,177.847 412.195,179.181 412,180.5C 406.568,185.425 401.735,190.758 397.5,196.5C 397.167,196.5 396.833,196.5 396.5,196.5C 392.584,189.692 387.917,183.359 382.5,177.5C 386.318,173.182 390.318,169.015 394.5,165C 395.793,164.51 397.127,164.343 398.5,164.5 Z"/></g>
<g><path style="opacity:1" fill="#bca0d5" d="M 260.5,193.5 C 260.489,195.017 259.823,196.184 258.5,197C 256.527,197.495 254.527,197.662 252.5,197.5C 251.4,196.395 250.733,195.062 250.5,193.5C 250.334,185.826 250.5,178.159 251,170.5C 254,166.5 257,166.5 260,170.5C 260.5,178.159 260.666,185.826 260.5,193.5 Z"/></g>
<g><path style="opacity:1" fill="#e4316d" d="M 107.5,169.5 C 108.239,169.369 108.906,169.536 109.5,170C 91.9625,194.907 74.7958,220.073 58,245.5C 57.1475,247.125 56.1475,247.458 55,246.5C 53.0588,250.554 52.2254,250.22 52.5,245.5C 56.1941,229.113 61.8608,213.447 69.5,198.5C 71.3885,197.396 73.0552,196.063 74.5,194.5C 80.3883,191.607 85.7217,187.94 90.5,183.5C 94.817,180.514 98.817,177.18 102.5,173.5C 104.167,172.167 105.833,170.833 107.5,169.5 Z"/></g>
<g><path style="opacity:1" fill="#c7b3dd" d="M 318.5,184.5 C 321.754,185.673 322.92,188.006 322,191.5C 319,196.833 316,202.167 313,207.5C 311.951,209.384 310.451,210.718 308.5,211.5C 304.662,211.993 302.662,210.326 302.5,206.5C 304.96,200.247 307.96,194.247 311.5,188.5C 312.829,185.52 315.163,184.187 318.5,184.5 Z"/></g>
<g><path style="opacity:1" fill="#fd9f2f" d="M 74.5,194.5 C 73.0552,196.063 71.3885,197.396 69.5,198.5C 58.9113,205.564 47.2447,209.064 34.5,209C 30.0354,208.434 26.0354,206.767 22.5,204C 17.8118,199.491 14.1452,194.325 11.5,188.5C 11.369,187.761 11.5357,187.094 12,186.5C 12.6667,187.833 13.3333,187.833 14,186.5C 23.457,189.689 32.7904,192.355 42,194.5C 42.3333,193.833 42.6667,193.167 43,192.5C 47.6496,193.593 52.3163,194.593 57,195.5C 57.3333,194.833 57.6667,194.167 58,193.5C 59.3333,194.167 60.6667,194.833 62,195.5C 66.0699,195.809 70.2366,195.476 74.5,194.5 Z"/></g>
<g><path style="opacity:1" fill="#b695cf" d="M 206.5,200.5 C 209.022,204.073 209.022,207.573 206.5,211C 202.695,212.173 199.861,211.007 198,207.5C 196.006,203.357 193.839,199.357 191.5,195.5C 190.496,194.317 189.662,192.984 189,191.5C 188.056,185.447 190.556,183.28 196.5,185C 199.982,190.146 203.315,195.313 206.5,200.5 Z"/></g>
<g><path style="opacity:1" fill="#c0a5d6" d="M 162.5,183.5 C 153.686,197.044 145.186,211.378 137,226.5C 128.333,244.5 119.667,262.5 111,280.5C 110.617,279.944 110.117,279.611 109.5,279.5C 110.421,271.731 111.921,264.064 114,256.5C 122.485,226.887 138.652,202.554 162.5,183.5 Z"/></g>
<g><path style="opacity:1" fill="#fd5076" d="M 411.5,176.5 C 413.167,177.5 414.5,178.833 415.5,180.5C 421.625,186.795 427.625,193.295 433.5,200C 427.008,207.659 420.008,214.826 412.5,221.5C 407.766,213.037 402.766,204.703 397.5,196.5C 401.735,190.758 406.568,185.425 412,180.5C 412.195,179.181 412.028,177.847 411.5,176.5 Z"/></g>
<g><path style="opacity:1" fill="#f75888" d="M 161.5,109.5 C 162.598,110.601 162.765,111.934 162,113.5C 123.898,167.81 87.398,222.643 52.5,278C 47.8388,285.177 46.1722,284.01 47.5,274.5C 47.1936,271.615 47.5269,268.948 48.5,266.5C 48.3398,268.199 48.5065,269.866 49,271.5C 77.7519,228.873 106.085,186.206 134,143.5C 131.957,145.208 130.29,147.208 129,149.5C 128.617,148.944 128.117,148.611 127.5,148.5C 129.555,146.445 131.221,144.112 132.5,141.5C 136.812,137.546 140.145,132.88 142.5,127.5C 144.522,125.469 146.189,123.135 147.5,120.5C 148.82,118.537 150.154,116.537 151.5,114.5C 152.167,114.5 152.5,114.167 152.5,113.5C 153.167,113.5 153.5,113.167 153.5,112.5C 156.167,111.5 158.833,110.5 161.5,109.5 Z"/></g>
<g><path style="opacity:1" fill="#e0ddf2" d="M 311.5,188.5 C 307.96,194.247 304.96,200.247 302.5,206.5C 302.662,210.326 304.662,211.993 308.5,211.5C 306.956,212.914 305.289,213.247 303.5,212.5C 299.549,215.029 295.715,218.363 292,222.5C 290.836,222.835 289.503,222.835 288,222.5C 287.395,224.481 286.395,224.815 285,223.5C 282.621,228.778 281.621,228.778 282,223.5C 260.336,245.164 238.169,267.331 215.5,290C 222.826,290.5 230.159,290.666 237.5,290.5C 237.5,290.833 237.5,291.167 237.5,291.5C 201.833,291.5 166.167,291.5 130.5,291.5C 142.326,290.669 154.326,290.169 166.5,290C 166.167,289.667 165.833,289.333 165.5,289C 178.737,275.763 191.904,262.596 205,249.5C 205.333,249.833 205.667,250.167 206,250.5C 206.221,247.057 207.221,246.724 209,249.5C 209.84,246.536 210.84,246.203 212,248.5C 212.419,247.328 213.085,246.328 214,245.5C 215.333,245.5 216.667,245.5 218,245.5C 219.084,244.335 219.917,243.002 220.5,241.5C 223.557,240.61 225.391,238.61 226,235.5C 226.333,235.833 226.667,236.167 227,236.5C 230.06,233.543 233.06,230.543 236,227.5C 236.333,228.167 236.667,228.833 237,229.5C 237.442,227.321 238.442,226.655 240,227.5C 241.667,226.5 243.333,225.5 245,224.5C 245.333,224.833 245.667,225.167 246,225.5C 248.495,222.172 251.329,219.172 254.5,216.5C 255.086,216.709 255.586,217.043 256,217.5C 256.561,215.275 257.561,213.275 259,211.5C 260.316,214.028 261.483,214.028 262.5,211.5C 263.903,211.36 265.403,211.36 267,211.5C 267.308,210.692 267.808,210.025 268.5,209.5C 269.965,210.609 270.965,210.109 271.5,208C 270.044,207.577 269.544,206.744 270,205.5C 271.667,205.833 273.333,206.167 275,206.5C 277.157,203.344 279.657,200.511 282.5,198C 288.395,196.823 293.562,194.323 298,190.5C 299.333,190.5 300.667,190.5 302,190.5C 302.915,189.672 303.581,188.672 304,187.5C 305.395,188.815 306.395,188.481 307,186.5C 308.113,187.711 309.28,187.711 310.5,186.5C 311.298,186.957 311.631,187.624 311.5,188.5 Z"/></g>
<g><path style="opacity:1" fill="#fd9d31" d="M 499.5,188.5 C 496.855,194.325 493.188,199.491 488.5,204C 480.844,209.33 472.511,210.663 463.5,208C 455.901,205.869 448.901,202.702 442.5,198.5C 442.389,197.883 442.056,197.383 441.5,197C 445.66,196.833 449.493,195.666 453,193.5C 453.333,194.167 453.667,194.833 454,195.5C 458.684,194.593 463.35,193.593 468,192.5C 468.333,193.167 468.667,193.833 469,194.5C 478.21,192.355 487.543,189.689 497,186.5C 497.667,187.833 498.333,187.833 499,186.5C 499.464,187.094 499.631,187.761 499.5,188.5 Z"/></g>
<g><path style="opacity:1" fill="#fc7195" d="M 184.5,99.5 C 184.938,99.4346 185.272,99.6012 185.5,100C 171.049,120.435 157.049,141.102 143.5,162C 143.728,162.399 144.062,162.565 144.5,162.5C 118.958,184.577 100.625,211.577 89.5,243.5C 77.2831,262.24 64.7831,280.907 52,299.5C 51.9041,303.165 50.9041,306.831 49,310.5C 48.5831,311.756 47.7498,312.423 46.5,312.5C 46.1667,305.833 45.8333,299.167 45.5,292.5C 46.1174,292.611 46.6174,292.944 47,293.5C 89.0427,230.58 131.209,167.747 173.5,105C 172.906,104.536 172.239,104.369 171.5,104.5C 175.534,102.263 179.868,100.596 184.5,99.5 Z"/></g>
<g><path style="opacity:1" fill="#d8d0ec" d="M 250.5,193.5 C 250.733,195.062 251.4,196.395 252.5,197.5C 251.671,198.332 250.838,197.999 250,196.5C 248.406,197.716 246.906,199.049 245.5,200.5C 244.914,200.291 244.414,199.957 244,199.5C 243.751,200.624 243.251,201.624 242.5,202.5C 239.401,203.362 236.567,204.695 234,206.5C 233.667,205.833 233.333,205.167 233,204.5C 232.047,206.455 230.713,208.122 229,209.5C 228.667,209.167 228.333,208.833 228,208.5C 224.425,210.641 220.591,212.307 216.5,213.5C 215.914,213.291 215.414,212.957 215,212.5C 212.331,216.506 209.331,219.506 206,221.5C 205.586,221.043 205.086,220.709 204.5,220.5C 204.167,221.167 203.833,221.833 203.5,222.5C 202.808,221.975 202.308,221.308 202,220.5C 200.513,221.253 200.346,222.086 201.5,223C 200.216,223.684 199.049,223.517 198,222.5C 197.71,224.044 197.044,225.377 196,226.5C 195.667,226.167 195.333,225.833 195,225.5C 193.951,227.107 192.451,227.773 190.5,227.5C 190.719,228.675 190.386,229.675 189.5,230.5C 188.097,230.64 186.597,230.64 185,230.5C 185.88,233.125 185.213,235.458 183,237.5C 179.492,233.389 178.992,233.556 181.5,238C 179.913,238.862 178.246,239.529 176.5,240C 177.833,240.333 179.167,240.667 180.5,241C 178.369,241.543 176.369,242.376 174.5,243.5C 173.253,245.042 173.253,246.542 174.5,248C 173.448,249.119 172.281,249.619 171,249.5C 170.667,250.5 170.333,251.5 170,252.5C 169.768,251.263 169.268,250.263 168.5,249.5C 170.391,247.164 170.891,244.498 170,241.5C 165.055,238.614 160.221,235.614 155.5,232.5C 155.586,231.504 155.252,230.671 154.5,230C 155.5,229.667 156.5,229.333 157.5,229C 155.122,228.026 155.456,227.359 158.5,227C 158.167,226.667 157.833,226.333 157.5,226C 158.416,225.626 159.25,225.126 160,224.5C 162.285,220.138 164.118,216.138 165.5,212.5C 168.168,211.901 170.002,210.234 171,207.5C 171.333,208.167 171.667,208.833 172,209.5C 173.935,204.329 177.602,200.996 183,199.5C 185.366,200.938 185.866,200.438 184.5,198C 186.947,198.052 189.28,197.218 191.5,195.5C 193.839,199.357 196.006,203.357 198,207.5C 199.861,211.007 202.695,212.173 206.5,211C 209.022,207.573 209.022,204.073 206.5,200.5C 207.566,199.308 208.399,199.641 209,201.5C 210.204,200.529 210.704,199.529 210.5,198.5C 211.167,198.833 211.833,199.167 212.5,199.5C 214.795,198.568 217.129,197.735 219.5,197C 220.469,195.242 221.636,194.742 223,195.5C 226.166,194.251 229.499,192.584 233,190.5C 234.333,190.5 235.667,190.5 237,190.5C 238.57,189.386 239.903,188.053 241,186.5C 241.333,186.833 241.667,187.167 242,187.5C 244.022,186.214 246.189,185.214 248.5,184.5C 249.167,187.642 249.834,190.642 250.5,193.5 Z"/></g>
<g><path style="opacity:0.993" fill="#fb3f6e" d="M 415.5,180.5 C 417.411,181.075 419.078,182.075 420.5,183.5C 427.198,188.856 434.198,193.856 441.5,198.5C 446.816,209.116 451.15,220.116 454.5,231.5C 453.685,230.571 452.852,229.571 452,228.5C 442.965,237.702 433.798,246.702 424.5,255.5C 422.792,249.308 420.792,243.308 418.5,237.5C 416.697,232.089 414.697,226.756 412.5,221.5C 420.008,214.826 427.008,207.659 433.5,200C 427.625,193.295 421.625,186.795 415.5,180.5 Z"/></g>
<g><path style="opacity:1" fill="#fd698c" d="M 396.5,196.5 C 396.833,196.5 397.167,196.5 397.5,196.5C 402.766,204.703 407.766,213.037 412.5,221.5C 414.697,226.756 416.697,232.089 418.5,237.5C 418.649,238.552 418.483,239.552 418,240.5C 411.667,246.833 405.333,253.167 399,259.5C 398.517,260.448 398.351,261.448 398.5,262.5C 395.376,250.807 391.042,239.473 385.5,228.5C 382.9,224.299 380.566,219.966 378.5,215.5C 383.775,208.556 389.775,202.223 396.5,196.5 Z"/></g>
<g><path style="opacity:1" fill="#e2e0f3" d="M 334.5,173.5 C 340.878,177.031 346.878,181.198 352.5,186C 361.776,195.433 370.443,205.267 378.5,215.5C 380.566,219.966 382.9,224.299 385.5,228.5C 384.504,228.586 383.671,228.252 383,227.5C 369.437,245.658 354.437,262.658 338,278.5C 333.363,283.973 328.529,289.306 323.5,294.5C 321.724,296.939 320.39,299.606 319.5,302.5C 318.575,303.641 317.741,303.641 317,302.5C 316.594,305.915 314.928,308.582 312,310.5C 311.667,310.167 311.333,309.833 311,309.5C 310.529,311.246 309.862,312.913 309,314.5C 308.667,314.167 308.333,313.833 308,313.5C 306.5,315 305,316.5 303.5,318C 304.757,320.076 304.424,321.91 302.5,323.5C 298.5,320.167 294.833,316.5 291.5,312.5C 292.92,309.747 293.753,307.08 294,304.5C 310.003,285.999 326.17,267.665 342.5,249.5C 344.199,249.66 345.866,249.494 347.5,249C 354.247,245.545 360.747,241.711 367,237.5C 368.336,233.168 366.836,230.501 362.5,229.5C 357.711,231.728 353.045,234.228 348.5,237C 347.5,237.667 346.5,237.667 345.5,237C 352.79,228.396 359.956,219.896 367,211.5C 367.585,210.002 367.085,209.002 365.5,208.5C 362.5,204.833 359.167,201.5 355.5,198.5C 354.833,197.167 353.833,196.167 352.5,195.5C 350.881,193.762 348.881,193.262 346.5,194C 323.407,207.145 302.573,223.311 284,242.5C 279.158,248.863 274.324,255.197 269.5,261.5C 267.445,263.555 265.779,265.888 264.5,268.5C 261.484,271.52 258.817,274.854 256.5,278.5C 247.533,278.489 241.199,282.489 237.5,290.5C 230.159,290.666 222.826,290.5 215.5,290C 238.169,267.331 260.336,245.164 282,223.5C 281.621,228.778 282.621,228.778 285,223.5C 286.395,224.815 287.395,224.481 288,222.5C 289.503,222.835 290.836,222.835 292,222.5C 295.715,218.363 299.549,215.029 303.5,212.5C 305.289,213.247 306.956,212.914 308.5,211.5C 310.451,210.718 311.951,209.384 313,207.5C 316,202.167 319,196.833 322,191.5C 322.92,188.006 321.754,185.673 318.5,184.5C 317.073,182.1 317.573,181.433 320,182.5C 320.605,180.519 321.605,180.185 323,181.5C 322.383,179.905 322.716,178.572 324,177.5C 325.333,177.5 326.667,177.5 328,177.5C 329.571,175.077 331.737,173.744 334.5,173.5 Z"/></g>
<g><path style="opacity:1" fill="#595959" d="M 352.5,195.5 C 328.535,218.965 304.701,242.632 281,266.5C 278.256,265.026 275.423,264.193 272.5,264C 271.627,262.955 270.627,262.122 269.5,261.5C 274.324,255.197 279.158,248.863 284,242.5C 302.573,223.311 323.407,207.145 346.5,194C 348.881,193.262 350.881,193.762 352.5,195.5 Z"/></g>
<g><path style="opacity:1" fill="#494949" d="M 352.5,195.5 C 353.833,196.167 354.833,197.167 355.5,198.5C 355.752,201.32 355.252,203.986 354,206.5C 340.019,229.801 323.186,250.801 303.5,269.5C 297.5,273.833 291.5,278.167 285.5,282.5C 285.631,281.624 285.298,280.957 284.5,280.5C 277.474,276.992 270.807,272.992 264.5,268.5C 265.779,265.888 267.445,263.555 269.5,261.5C 270.627,262.122 271.627,262.955 272.5,264C 275.423,264.193 278.256,265.026 281,266.5C 304.701,242.632 328.535,218.965 352.5,195.5 Z"/></g>
<g><path style="opacity:1" fill="#c7b3dd" d="M 355.5,198.5 C 359.167,201.5 362.5,204.833 365.5,208.5C 358.897,217.771 351.23,226.105 342.5,233.5C 336.126,240.528 329.96,247.862 324,255.5C 321.704,257.761 319.204,259.761 316.5,261.5C 311.971,266.18 308.138,271.514 305,277.5C 300.819,280.682 297.319,284.516 294.5,289C 291.16,290.347 289.326,292.847 289,296.5C 287.989,297.337 286.822,297.67 285.5,297.5C 285.984,300.788 284.984,303.455 282.5,305.5C 280.938,305.267 279.605,304.6 278.5,303.5C 278.167,302.833 277.833,302.167 277.5,301.5C 286.178,290.792 294.844,280.126 303.5,269.5C 323.186,250.801 340.019,229.801 354,206.5C 355.252,203.986 355.752,201.32 355.5,198.5 Z"/></g>
<g><path style="opacity:1" fill="#b392ce" d="M 148.5,229.5 C 150.954,230.227 153.287,231.227 155.5,232.5C 160.221,235.614 165.055,238.614 170,241.5C 170.891,244.498 170.391,247.164 168.5,249.5C 166.801,249.66 165.134,249.494 163.5,249C 158.271,245.887 152.938,243.053 147.5,240.5C 146.312,239.636 145.145,238.636 144,237.5C 142.349,232.841 143.849,230.174 148.5,229.5 Z"/></g>
<g><path style="opacity:1" fill="#edeff9" d="M 385.5,228.5 C 391.042,239.473 395.376,250.807 398.5,262.5C 398.993,264.806 399.326,267.139 399.5,269.5C 391.756,275.739 384.422,282.572 377.5,290C 378.737,290.232 379.737,290.732 380.5,291.5C 372.493,291.334 364.493,291.5 356.5,292C 353.833,295 353.833,298 356.5,301C 359.482,301.498 362.482,301.665 365.5,301.5C 351.202,316.299 336.702,330.965 322,345.5C 321.536,346.094 321.369,346.761 321.5,347.5C 315.197,339.524 308.864,331.524 302.5,323.5C 304.424,321.91 304.757,320.076 303.5,318C 305,316.5 306.5,315 308,313.5C 308.333,313.833 308.667,314.167 309,314.5C 309.862,312.913 310.529,311.246 311,309.5C 311.333,309.833 311.667,310.167 312,310.5C 314.928,308.582 316.594,305.915 317,302.5C 317.741,303.641 318.575,303.641 319.5,302.5C 320.39,299.606 321.724,296.939 323.5,294.5C 328.529,289.306 333.363,283.973 338,278.5C 354.437,262.658 369.437,245.658 383,227.5C 383.671,228.252 384.504,228.586 385.5,228.5 Z"/></g>
<g><path style="opacity:1" fill="#d8cfeb" d="M 342.5,249.5 C 326.17,267.665 310.003,285.999 294,304.5C 293.753,307.08 292.92,309.747 291.5,312.5C 289.246,311.585 287.246,310.252 285.5,308.5C 286.172,307.733 287.005,307.066 288,306.5C 288.29,304.048 288.956,301.715 290,299.5C 300.065,288.98 309.398,277.98 318,266.5C 319.378,264.787 321.045,263.453 323,262.5C 323.908,259.257 325.908,256.923 329,255.5C 331.607,251.191 334.94,247.525 339,244.5C 340.176,246.196 341.343,247.862 342.5,249.5 Z"/></g>
<g><path style="opacity:1" fill="#fe839b" d="M 89.5,243.5 C 88.8333,247.167 88.1667,250.833 87.5,254.5C 86.3745,257.465 85.3745,260.465 84.5,263.5C 77.0194,272.955 69.8528,283.288 63,294.5C 59.9703,300.138 57.4703,305.971 55.5,312C 56.263,312.944 57.263,313.444 58.5,313.5C 65.8089,311.56 73.1422,309.726 80.5,308C 81.1518,300.401 81.8185,292.901 82.5,285.5C 82.5,292.5 82.5,299.5 82.5,306.5C 82.6349,312.181 82.9682,317.848 83.5,323.5C 81.5018,324.148 79.5018,324.981 77.5,326C 69.1667,327.667 60.8333,329.333 52.5,331C 51.6266,332.045 50.6266,332.878 49.5,333.5C 47.9311,326.621 46.9311,319.621 46.5,312.5C 47.7498,312.423 48.5831,311.756 49,310.5C 50.9041,306.831 51.9041,303.165 52,299.5C 64.7831,280.907 77.2831,262.24 89.5,243.5 Z"/></g>
<g><path style="opacity:1" fill="#f95a87" d="M 418.5,237.5 C 420.792,243.308 422.792,249.308 424.5,255.5C 428.091,272.965 429.425,290.632 428.5,308.5C 427.603,309.598 426.77,309.598 426,308.5C 422.848,311.654 419.181,313.987 415,315.5C 414.667,315.167 414.333,314.833 414,314.5C 409.245,317.787 404.412,320.787 399.5,323.5C 399.833,320.833 400.167,318.167 400.5,315.5C 402.029,300.248 401.696,284.914 399.5,269.5C 399.326,267.139 398.993,264.806 398.5,262.5C 398.351,261.448 398.517,260.448 399,259.5C 405.333,253.167 411.667,246.833 418,240.5C 418.483,239.552 418.649,238.552 418.5,237.5 Z"/></g>
<g><path style="opacity:1" fill="#cfc0e4" d="M 365.5,208.5 C 367.085,209.002 367.585,210.002 367,211.5C 359.956,219.896 352.79,228.396 345.5,237C 346.5,237.667 347.5,237.667 348.5,237C 353.045,234.228 357.711,231.728 362.5,229.5C 366.836,230.501 368.336,233.168 367,237.5C 360.747,241.711 354.247,245.545 347.5,249C 345.866,249.494 344.199,249.66 342.5,249.5C 341.343,247.862 340.176,246.196 339,244.5C 334.94,247.525 331.607,251.191 329,255.5C 325.908,256.923 323.908,259.257 323,262.5C 321.045,263.453 319.378,264.787 318,266.5C 309.398,277.98 300.065,288.98 290,299.5C 288.956,301.715 288.29,304.048 288,306.5C 287.005,307.066 286.172,307.733 285.5,308.5C 284.167,307.833 283.167,306.833 282.5,305.5C 284.984,303.455 285.984,300.788 285.5,297.5C 286.822,297.67 287.989,297.337 289,296.5C 289.326,292.847 291.16,290.347 294.5,289C 297.319,284.516 300.819,280.682 305,277.5C 308.138,271.514 311.971,266.18 316.5,261.5C 319.204,259.761 321.704,257.761 324,255.5C 329.96,247.862 336.126,240.528 342.5,233.5C 351.23,226.105 358.897,217.771 365.5,208.5 Z"/></g>
<g><path style="opacity:1" fill="#f1f5fc" d="M 399.5,269.5 C 401.696,284.914 402.029,300.248 400.5,315.5C 400.649,314.448 400.483,313.448 400,312.5C 386.965,325.368 374.131,338.368 361.5,351.5C 357.194,349.012 352.861,346.512 348.5,344C 342,342.5 339.5,345 341,351.5C 345.316,354.066 349.483,356.733 353.5,359.5C 341.5,370.833 329.833,382.5 318.5,394.5C 315.733,390.483 313.066,386.316 310.5,382C 304.507,380.332 302.007,382.498 303,388.5C 305.73,393.058 308.23,397.725 310.5,402.5C 297.167,415.167 284.167,428.167 271.5,441.5C 257.161,443.005 242.828,442.672 228.5,440.5C 234.739,432.756 241.572,425.422 249,418.5C 249.232,419.737 249.732,420.737 250.5,421.5C 254.421,427.019 257.755,426.686 260.5,420.5C 261.326,415.684 261.826,410.684 262,405.5C 277.085,389.912 292.585,374.912 308.5,360.5C 313.277,363.06 317.944,365.893 322.5,369C 325.614,370.087 327.947,369.254 329.5,366.5C 330.613,365.054 330.78,363.387 330,361.5C 326.893,356.944 324.06,352.277 321.5,347.5C 321.369,346.761 321.536,346.094 322,345.5C 336.702,330.965 351.202,316.299 365.5,301.5C 370.844,301.666 376.177,301.499 381.5,301C 385.637,297.378 385.304,294.212 380.5,291.5C 379.737,290.732 378.737,290.232 377.5,290C 384.422,282.572 391.756,275.739 399.5,269.5 Z"/></g>
<g><path style="opacity:1" fill="#32302f" d="M 264.5,268.5 C 270.807,272.992 277.474,276.992 284.5,280.5C 285.298,280.957 285.631,281.624 285.5,282.5C 281.866,285.984 277.866,288.984 273.5,291.5C 273.5,290.833 273.167,290.5 272.5,290.5C 272.25,288.326 271.25,286.659 269.5,285.5C 269.106,283.29 267.773,281.957 265.5,281.5C 264.486,280.326 263.153,279.66 261.5,279.5C 260.081,278.549 258.415,278.216 256.5,278.5C 258.817,274.854 261.484,271.52 264.5,268.5 Z"/></g>
<g><path style="opacity:1" fill="#fad44d" d="M 265.5,281.5 C 267.773,281.957 269.106,283.29 269.5,285.5C 265.337,289.831 261.337,294.331 257.5,299C 253.914,300.108 250.247,300.608 246.5,300.5C 252.5,293.833 258.833,287.5 265.5,281.5 Z"/></g>
<g><path style="opacity:1" fill="#f52862" d="M 454.5,231.5 C 461.967,253.754 465.634,276.754 465.5,300.5C 462.299,302.177 458.965,303.677 455.5,305C 447.585,309.904 439.919,315.237 432.5,321C 430.753,321.352 429.086,321.852 427.5,322.5C 427.833,317.833 428.167,313.167 428.5,308.5C 429.425,290.632 428.091,272.965 424.5,255.5C 433.798,246.702 442.965,237.702 452,228.5C 452.852,229.571 453.685,230.571 454.5,231.5 Z"/></g>
<g><path style="opacity:1" fill="#fe8fa1" d="M 84.5,263.5 C 83.3639,270.787 82.6973,278.12 82.5,285.5C 81.8185,292.901 81.1518,300.401 80.5,308C 73.1422,309.726 65.8089,311.56 58.5,313.5C 57.263,313.444 56.263,312.944 55.5,312C 57.4703,305.971 59.9703,300.138 63,294.5C 69.8528,283.288 77.0194,272.955 84.5,263.5 Z"/></g>
<g><path style="opacity:1" fill="#fce996" d="M 256.5,278.5 C 258.415,278.216 260.081,278.549 261.5,279.5C 254.206,285.788 246.872,292.121 239.5,298.5C 238.614,299.325 238.281,300.325 238.5,301.5C 238.5,301.833 238.5,302.167 238.5,302.5C 238.167,302.5 237.833,302.5 237.5,302.5C 237.5,302.167 237.5,301.833 237.5,301.5C 237.5,300.833 237.5,300.167 237.5,299.5C 237.5,299.167 237.5,298.833 237.5,298.5C 237.5,296.167 237.5,293.833 237.5,291.5C 237.5,291.167 237.5,290.833 237.5,290.5C 241.199,282.489 247.533,278.489 256.5,278.5 Z"/></g>
<g><path style="opacity:1" fill="#fbbf37" d="M 269.5,285.5 C 271.25,286.659 272.25,288.326 272.5,290.5C 271.515,294.33 269.181,297.163 265.5,299C 258.799,300.657 252.133,302.99 245.5,306C 244.429,306.852 243.429,307.685 242.5,308.5C 241.5,307.833 240.5,307.167 239.5,306.5C 239.167,305.167 238.833,303.833 238.5,302.5C 238.5,302.167 238.5,301.833 238.5,301.5C 241.167,301.167 243.833,300.833 246.5,300.5C 250.247,300.608 253.914,300.108 257.5,299C 261.337,294.331 265.337,289.831 269.5,285.5 Z"/></g>
<g><path style="opacity:1" fill="#d7ccea" d="M 380.5,291.5 C 385.304,294.212 385.637,297.378 381.5,301C 376.177,301.499 370.844,301.666 365.5,301.5C 362.482,301.665 359.482,301.498 356.5,301C 353.833,298 353.833,295 356.5,292C 364.493,291.5 372.493,291.334 380.5,291.5 Z"/></g>
<g><path style="opacity:1" fill="#97cbfd" d="M 130.5,291.5 C 166.167,291.5 201.833,291.5 237.5,291.5C 237.5,293.833 237.5,296.167 237.5,298.5C 236.833,298.5 236.5,298.167 236.5,297.5C 236.5,296.833 236.5,296.167 236.5,295.5C 200.515,293.506 164.182,292.84 127.5,293.5C 128.29,292.599 129.29,291.932 130.5,291.5 Z"/></g>
<g><path style="opacity:1" fill="#b89acf" d="M 303.5,269.5 C 294.844,280.126 286.178,290.792 277.5,301.5C 275.938,301.267 274.605,300.6 273.5,299.5C 273.5,296.833 273.5,294.167 273.5,291.5C 277.866,288.984 281.866,285.984 285.5,282.5C 291.5,278.167 297.5,273.833 303.5,269.5 Z"/></g>
<g><path style="opacity:1" fill="#fcdf71" d="M 261.5,279.5 C 263.153,279.66 264.486,280.326 265.5,281.5C 258.833,287.5 252.5,293.833 246.5,300.5C 243.833,300.833 241.167,301.167 238.5,301.5C 238.281,300.325 238.614,299.325 239.5,298.5C 246.872,292.121 254.206,285.788 261.5,279.5 Z"/></g>
<g><path style="opacity:1" fill="#73bafc" d="M 127.5,293.5 C 164.182,292.84 200.515,293.506 236.5,295.5C 199.818,294.84 163.485,295.506 127.5,297.5C 127.5,297.833 127.5,298.167 127.5,298.5C 126.28,296.95 126.28,295.284 127.5,293.5 Z"/></g>
<g><path style="opacity:1" fill="#50a8fd" d="M 236.5,295.5 C 236.5,296.167 236.5,296.833 236.5,297.5C 200.167,297.5 163.833,297.5 127.5,297.5C 163.485,295.506 199.818,294.84 236.5,295.5 Z"/></g>
<g><path style="opacity:1" fill="#2d97fc" d="M 127.5,297.5 C 163.833,297.5 200.167,297.5 236.5,297.5C 236.5,298.167 236.833,298.5 237.5,298.5C 237.5,298.833 237.5,299.167 237.5,299.5C 201.167,299.5 164.833,299.5 128.5,299.5C 127.833,299.5 127.5,299.167 127.5,298.5C 127.5,298.167 127.5,297.833 127.5,297.5 Z"/></g>
<g><path style="opacity:1" fill="#1088fb" d="M 128.5,299.5 C 164.833,299.5 201.167,299.5 237.5,299.5C 237.5,300.167 237.5,300.833 237.5,301.5C 218.833,301.5 200.167,301.5 181.5,301.5C 164.5,301.5 147.5,301.5 130.5,301.5C 129.5,301.167 128.833,300.5 128.5,299.5 Z"/></g>
<g><path style="opacity:1" fill="#ac85c7" d="M 130.5,301.5 C 147.5,301.5 164.5,301.5 181.5,301.5C 166.52,304.143 151.187,305.81 135.5,306.5C 133.5,305.167 131.833,303.5 130.5,301.5 Z"/></g>
<g><path style="opacity:1" fill="#fca92f" d="M 272.5,290.5 C 273.167,290.5 273.5,290.833 273.5,291.5C 273.5,294.167 273.5,296.833 273.5,299.5C 272.097,306.668 268.097,311.668 261.5,314.5C 255.977,314.931 250.644,314.264 245.5,312.5C 244.5,311.167 243.5,309.833 242.5,308.5C 243.429,307.685 244.429,306.852 245.5,306C 252.133,302.99 258.799,300.657 265.5,299C 269.181,297.163 271.515,294.33 272.5,290.5 Z"/></g>
<g><path style="opacity:1" fill="#595959" d="M 278.5,303.5 C 279.605,304.6 280.938,305.267 282.5,305.5C 283.167,306.833 284.167,307.833 285.5,308.5C 287.246,310.252 289.246,311.585 291.5,312.5C 294.833,316.5 298.5,320.167 302.5,323.5C 308.864,331.524 315.197,339.524 321.5,347.5C 324.06,352.277 326.893,356.944 330,361.5C 330.78,363.387 330.613,365.054 329.5,366.5C 312.202,348.701 294.702,331.035 277,313.5C 276.153,309.928 276.653,306.594 278.5,303.5 Z"/></g>
<g><path style="opacity:1" fill="#bb9ed3" d="M 181.5,301.5 C 200.167,301.5 218.833,301.5 237.5,301.5C 237.5,301.833 237.5,302.167 237.5,302.5C 204.896,305.62 172.229,308.287 139.5,310.5C 137.833,309.5 136.5,308.167 135.5,306.5C 151.187,305.81 166.52,304.143 181.5,301.5 Z"/></g>
<g><path style="opacity:1" fill="#4a4949" d="M 273.5,299.5 C 274.605,300.6 275.938,301.267 277.5,301.5C 277.833,302.167 278.167,302.833 278.5,303.5C 276.653,306.594 276.153,309.928 277,313.5C 294.702,331.035 312.202,348.701 329.5,366.5C 327.947,369.254 325.614,370.087 322.5,369C 317.944,365.893 313.277,363.06 308.5,360.5C 305.048,357.601 301.382,354.934 297.5,352.5C 292.354,348.413 287.354,344.079 282.5,339.5C 276.349,333.165 270.682,326.498 265.5,319.5C 264.136,317.809 262.803,316.142 261.5,314.5C 268.097,311.668 272.097,306.668 273.5,299.5 Z"/></g>
<g><path style="opacity:1" fill="#d4c9e8" d="M 239.5,306.5 C 240.5,307.167 241.5,307.833 242.5,308.5C 243.5,309.833 244.5,311.167 245.5,312.5C 236.899,313.466 228.399,314.466 220,315.5C 219.667,315.167 219.333,314.833 219,314.5C 216.539,315.218 214.039,315.885 211.5,316.5C 210.914,316.291 210.414,315.957 210,315.5C 207.04,316.899 204.04,317.232 201,316.5C 195.587,317.258 190.254,318.258 185,319.5C 183.284,319.589 181.451,319.256 179.5,318.5C 169.748,320.359 160.415,321.693 151.5,322.5C 150.148,321.476 148.815,320.476 147.5,319.5C 146.833,318.5 146.167,317.5 145.5,316.5C 174.633,314.336 203.966,311.836 233.5,309C 235.852,308.76 237.852,307.927 239.5,306.5 Z"/></g>
<g><path style="opacity:1" fill="#cab7e0" d="M 237.5,302.5 C 237.833,302.5 238.167,302.5 238.5,302.5C 238.833,303.833 239.167,305.167 239.5,306.5C 237.852,307.927 235.852,308.76 233.5,309C 203.966,311.836 174.633,314.336 145.5,316.5C 143.167,314.833 141.167,312.833 139.5,310.5C 172.229,308.287 204.896,305.62 237.5,302.5 Z"/></g>
<g><path style="opacity:1" fill="#fe5678" d="M 108.5,289.5 C 108.179,294.695 108.513,299.695 109.5,304.5C 109.19,307.713 109.523,310.713 110.5,313.5C 111.532,327.969 115.199,341.636 121.5,354.5C 121.5,355.167 121.5,355.833 121.5,356.5C 120.127,356.657 118.793,356.49 117.5,356C 117.833,355.667 118.167,355.333 118.5,355C 117.167,354.667 115.833,354.333 114.5,354C 114.833,353.667 115.167,353.333 115.5,353C 112.5,352 109.5,351 106.5,350C 106.833,349.667 107.167,349.333 107.5,349C 103.539,347.21 99.5391,345.543 95.5,344C 95.8333,343.667 96.1667,343.333 96.5,343C 93.8323,342.433 91.1656,341.933 88.5,341.5C 88.5,340.833 88.1667,340.5 87.5,340.5C 86.6894,334.589 85.356,328.922 83.5,323.5C 82.9682,317.848 82.6349,312.181 82.5,306.5C 84.1992,306.34 85.8659,306.506 87.5,307C 87.1667,307.333 86.8333,307.667 86.5,308C 90.1321,307.923 93.7987,307.59 97.5,307C 95.5,306.667 93.5,306.333 91.5,306C 94.1667,305.667 96.8333,305.333 99.5,305C 97.5,304.667 95.5,304.333 93.5,304C 98.3687,298.963 103.369,294.13 108.5,289.5 Z"/></g>
<g><path style="opacity:1" fill="#b797ce" d="M 245.5,312.5 C 250.644,314.264 255.977,314.931 261.5,314.5C 262.803,316.142 264.136,317.809 265.5,319.5C 262.5,320.5 260.5,322.5 259.5,325.5C 258.29,325.068 257.29,324.401 256.5,323.5C 253.167,319.5 249.5,315.833 245.5,312.5 Z"/></g>
<g><path style="opacity:1" fill="#f4f9fe" d="M 400.5,315.5 C 400.167,318.167 399.833,320.833 399.5,323.5C 390.526,365.491 368.193,398.158 332.5,421.5C 330.938,421.733 329.605,422.4 328.5,423.5C 310.786,433.515 291.786,439.515 271.5,441.5C 284.167,428.167 297.167,415.167 310.5,402.5C 311.69,404.355 313.023,406.188 314.5,408C 318.731,409.267 321.398,407.767 322.5,403.5C 321.415,400.335 320.082,397.335 318.5,394.5C 329.833,382.5 341.5,370.833 353.5,359.5C 356.09,360.128 358.423,361.295 360.5,363C 365.822,363.34 367.989,360.84 367,355.5C 365.226,354.035 363.392,352.702 361.5,351.5C 374.131,338.368 386.965,325.368 400,312.5C 400.483,313.448 400.649,314.448 400.5,315.5 Z"/></g>
<g><path style="opacity:1" fill="#e5e4f5" d="M 256.5,323.5 C 257.29,324.401 258.29,325.068 259.5,325.5C 260.833,327.167 262.167,328.833 263.5,330.5C 261.009,330.829 258.843,331.829 257,333.5C 255.16,332.167 254.66,332.334 255.5,334C 253.888,334.72 252.388,334.554 251,333.5C 250.147,335.125 249.147,335.458 248,334.5C 245.763,335.056 243.763,336.056 242,337.5C 241.333,336.833 240.667,336.167 240,335.5C 237.711,337.906 235.044,338.572 232,337.5C 230.47,338.636 229.137,339.636 228,340.5C 226.927,339.72 225.76,339.887 224.5,341C 202.632,362.701 180.965,384.535 159.5,406.5C 155.543,403.878 151.876,400.878 148.5,397.5C 145.213,393.041 141.713,388.708 138,384.5C 135.579,380.929 133.413,377.262 131.5,373.5C 135.833,369.5 140.167,365.5 144.5,361.5C 146.16,363.248 148.16,363.748 150.5,363C 156.336,359.248 162.336,355.748 168.5,352.5C 171.403,349.041 171.07,346.041 167.5,343.5C 162.47,342.857 162.303,341.524 167,339.5C 168.672,340.505 170.005,341.839 171,343.5C 173.057,340.236 175.39,339.57 178,341.5C 178.981,338.345 180.315,338.012 182,340.5C 184.525,338.325 187.358,336.658 190.5,335.5C 193.704,335.915 196.871,335.248 200,333.5C 201,333.833 202,334.167 203,334.5C 203.317,332.699 203.984,332.366 205,333.5C 207.533,332.128 210.2,331.128 213,330.5C 214.016,331.634 214.683,331.301 215,329.5C 216.61,331.531 218.443,331.531 220.5,329.5C 222.519,330.14 224.353,330.14 226,329.5C 227.512,328.743 228.846,327.743 230,326.5C 231.268,326.616 232.602,326.949 234,327.5C 241.829,325.091 249.329,323.758 256.5,323.5 Z"/></g>
<g><path style="opacity:1" fill="#e0dcf1" d="M 245.5,312.5 C 249.5,315.833 253.167,319.5 256.5,323.5C 249.329,323.758 241.829,325.091 234,327.5C 232.602,326.949 231.268,326.616 230,326.5C 228.846,327.743 227.512,328.743 226,329.5C 224.353,330.14 222.519,330.14 220.5,329.5C 218.443,331.531 216.61,331.531 215,329.5C 214.683,331.301 214.016,331.634 213,330.5C 210.2,331.128 207.533,332.128 205,333.5C 203.984,332.366 203.317,332.699 203,334.5C 202,334.167 201,333.833 200,333.5C 196.871,335.248 193.704,335.915 190.5,335.5C 187.358,336.658 184.525,338.325 182,340.5C 180.315,338.012 178.981,338.345 178,341.5C 175.39,339.57 173.057,340.236 171,343.5C 170.005,341.839 168.672,340.505 167,339.5C 162.303,341.524 162.47,342.857 167.5,343.5C 165.801,343.34 164.134,343.506 162.5,344C 156.998,347.585 151.331,350.919 145.5,354C 143.285,356.242 142.952,358.742 144.5,361.5C 140.167,365.5 135.833,369.5 131.5,373.5C 127.397,368.295 124.063,362.628 121.5,356.5C 121.5,355.833 121.5,355.167 121.5,354.5C 121.164,352.525 121.664,350.525 123,348.5C 130.778,341.936 136.112,334.269 139,325.5C 139.333,326.167 139.667,326.833 140,327.5C 140.684,326.216 140.517,325.049 139.5,324C 140.623,322.956 141.956,322.29 143.5,322C 143.167,321.667 142.833,321.333 142.5,321C 143.667,320.5 144.5,319.667 145,318.5C 145.671,319.252 146.504,319.586 147.5,319.5C 148.815,320.476 150.148,321.476 151.5,322.5C 160.415,321.693 169.748,320.359 179.5,318.5C 181.451,319.256 183.284,319.589 185,319.5C 190.254,318.258 195.587,317.258 201,316.5C 204.04,317.232 207.04,316.899 210,315.5C 210.414,315.957 210.914,316.291 211.5,316.5C 214.039,315.885 216.539,315.218 219,314.5C 219.333,314.833 219.667,315.167 220,315.5C 228.399,314.466 236.899,313.466 245.5,312.5 Z"/></g>
<g><path style="opacity:1" fill="#e9eaf7" d="M 263.5,330.5 C 267.48,334.145 271.48,337.811 275.5,341.5C 276.333,340.5 277.167,339.5 278,338.5C 278.333,339.167 278.667,339.833 279,340.5C 280.011,339.663 281.178,339.33 282.5,339.5C 287.354,344.079 292.354,348.413 297.5,352.5C 295.22,352.9 293.387,354.567 292,357.5C 289.798,356.087 287.632,354.587 285.5,353C 282.87,349.368 279.87,346.035 276.5,343C 275.5,342.333 274.5,342.333 273.5,343C 245.248,370.751 217.581,398.917 190.5,427.5C 178.918,422.219 168.585,415.219 159.5,406.5C 180.965,384.535 202.632,362.701 224.5,341C 225.76,339.887 226.927,339.72 228,340.5C 229.137,339.636 230.47,338.636 232,337.5C 235.044,338.572 237.711,337.906 240,335.5C 240.667,336.167 241.333,336.833 242,337.5C 243.763,336.056 245.763,335.056 248,334.5C 249.147,335.458 250.147,335.125 251,333.5C 252.388,334.554 253.888,334.72 255.5,334C 254.66,332.334 255.16,332.167 257,333.5C 258.843,331.829 261.009,330.829 263.5,330.5 Z"/></g>
<g><path style="opacity:0.992" fill="#fe7593" d="M 83.5,323.5 C 85.356,328.922 86.6894,334.589 87.5,340.5C 87.3893,341.117 87.056,341.617 86.5,342C 76.0797,343.459 65.7464,345.459 55.5,348C 54.0267,348.71 53.3601,349.876 53.5,351.5C 51.5478,345.751 50.2145,339.751 49.5,333.5C 50.6266,332.878 51.6266,332.045 52.5,331C 60.8333,329.333 69.1667,327.667 77.5,326C 79.5018,324.981 81.5018,324.148 83.5,323.5 Z"/></g>
<g><path style="opacity:1" fill="#d3c9e6" d="M 265.5,319.5 C 270.682,326.498 276.349,333.165 282.5,339.5C 281.178,339.33 280.011,339.663 279,340.5C 278.667,339.833 278.333,339.167 278,338.5C 277.167,339.5 276.333,340.5 275.5,341.5C 271.48,337.811 267.48,334.145 263.5,330.5C 262.167,328.833 260.833,327.167 259.5,325.5C 260.5,322.5 262.5,320.5 265.5,319.5 Z"/></g>
<g><path style="opacity:1" fill="#c0a8d8" d="M 167.5,343.5 C 171.07,346.041 171.403,349.041 168.5,352.5C 162.336,355.748 156.336,359.248 150.5,363C 148.16,363.748 146.16,363.248 144.5,361.5C 142.952,358.742 143.285,356.242 145.5,354C 151.331,350.919 156.998,347.585 162.5,344C 164.134,343.506 165.801,343.34 167.5,343.5 Z"/></g>
<g><path style="opacity:1" fill="#f13976" d="M 428.5,308.5 C 428.167,313.167 427.833,317.833 427.5,322.5C 424.286,341.143 418.286,358.81 409.5,375.5C 401.528,380.12 393.195,384.286 384.5,388C 381,391.5 377.5,395 374,398.5C 371.809,397.786 369.476,397.453 367,397.5C 361.5,403 356,408.5 350.5,414C 349.216,414.684 348.049,414.517 347,413.5C 343.515,418.658 338.682,421.325 332.5,421.5C 368.193,398.158 390.526,365.491 399.5,323.5C 404.412,320.787 409.245,317.787 414,314.5C 414.333,314.833 414.667,315.167 415,315.5C 419.181,313.987 422.848,311.654 426,308.5C 426.77,309.598 427.603,309.598 428.5,308.5 Z"/></g>
<g><path style="opacity:0.996" fill="#fd688c" d="M 87.5,340.5 C 88.1667,340.5 88.5,340.833 88.5,341.5C 90.0394,346.784 91.3728,352.118 92.5,357.5C 91.5707,358.315 90.5707,359.148 89.5,360C 79.3117,362.311 68.9784,364.311 58.5,366C 59.3366,367.011 59.67,368.178 59.5,369.5C 56.5292,363.921 54.5292,357.921 53.5,351.5C 53.3601,349.876 54.0267,348.71 55.5,348C 65.7464,345.459 76.0797,343.459 86.5,342C 87.056,341.617 87.3893,341.117 87.5,340.5 Z"/></g>
<g><path style="opacity:1" fill="#edf0fa" d="M 297.5,352.5 C 301.382,354.934 305.048,357.601 308.5,360.5C 292.585,374.912 277.085,389.912 262,405.5C 261.826,410.684 261.326,415.684 260.5,420.5C 260.666,412.826 260.5,405.159 260,397.5C 257,394.833 254,394.833 251,397.5C 250.5,405.493 250.334,413.493 250.5,421.5C 249.732,420.737 249.232,419.737 249,418.5C 241.572,425.422 234.739,432.756 228.5,440.5C 222.533,439.04 216.533,437.706 210.5,436.5C 203.738,433.904 197.071,430.904 190.5,427.5C 217.581,398.917 245.248,370.751 273.5,343C 274.5,342.333 275.5,342.333 276.5,343C 279.87,346.035 282.87,349.368 285.5,353C 287.632,354.587 289.798,356.087 292,357.5C 293.387,354.567 295.22,352.9 297.5,352.5 Z"/></g>
<g><path style="opacity:1" fill="#dbd3ed" d="M 361.5,351.5 C 363.392,352.702 365.226,354.035 367,355.5C 367.989,360.84 365.822,363.34 360.5,363C 358.423,361.295 356.09,360.128 353.5,359.5C 349.483,356.733 345.316,354.066 341,351.5C 339.5,345 342,342.5 348.5,344C 352.861,346.512 357.194,349.012 361.5,351.5 Z"/></g>
<g><path style="opacity:1" fill="#e71259" d="M 465.5,300.5 C 464.569,323.419 460.402,345.752 453,367.5C 451.628,371.814 449.795,375.814 447.5,379.5C 446.749,378.427 445.749,378.26 444.5,379C 434.157,389.666 423.157,400.333 411.5,411C 410.833,411.667 410.167,411.667 409.5,411C 410.5,410 411.5,409 412.5,408C 411.5,407.333 410.5,407.333 409.5,408C 400.382,417.146 390.215,424.646 379,430.5C 378.667,430.167 378.333,429.833 378,429.5C 372.164,434.996 365.331,438.496 357.5,440C 353.833,442.333 350.167,444.667 346.5,447C 344.866,447.494 343.199,447.66 341.5,447.5C 371.369,430.298 394.036,406.298 409.5,375.5C 418.286,358.81 424.286,341.143 427.5,322.5C 429.086,321.852 430.753,321.352 432.5,321C 439.919,315.237 447.585,309.904 455.5,305C 458.965,303.677 462.299,302.177 465.5,300.5 Z"/></g>
<g><path style="opacity:1" fill="#fa4a79" d="M 88.5,341.5 C 91.1656,341.933 93.8323,342.433 96.5,343C 96.1667,343.333 95.8333,343.667 95.5,344C 99.5391,345.543 103.539,347.21 107.5,349C 107.167,349.333 106.833,349.667 106.5,350C 109.5,351 112.5,352 115.5,353C 115.167,353.333 114.833,353.667 114.5,354C 115.833,354.333 117.167,354.667 118.5,355C 118.167,355.333 117.833,355.667 117.5,356C 118.793,356.49 120.127,356.657 121.5,356.5C 124.063,362.628 127.397,368.295 131.5,373.5C 133.413,377.262 135.579,380.929 138,384.5C 141.713,388.708 145.213,393.041 148.5,397.5C 137.828,397.667 127.161,397.5 116.5,397C 117.888,396.111 117.722,395.611 116,395.5C 115.5,395.833 115,396.167 114.5,396.5C 115.248,398.332 116.248,399.999 117.5,401.5C 106.427,404.682 95.094,407.015 83.5,408.5C 82.5,408.833 81.5,409.167 80.5,409.5C 81.1272,410.417 81.4606,411.417 81.5,412.5C 79.1468,410.14 77.1468,407.473 75.5,404.5C 76.6527,403.687 76.6527,402.687 75.5,401.5C 78.7847,399.28 82.4513,398.113 86.5,398C 86.1667,397.667 85.8333,397.333 85.5,397C 88.9561,397.093 91.9561,396.093 94.5,394C 99.4814,393.252 104.481,392.752 109.5,392.5C 103.563,380.959 97.8961,369.292 92.5,357.5C 91.3728,352.118 90.0394,346.784 88.5,341.5 Z"/></g>
<g><path style="opacity:1" fill="#cbb9e0" d="M 200.5,381.5 C 206.496,380.333 208.996,382.666 208,388.5C 204.667,394.5 201.333,400.5 198,406.5C 192.085,409.905 189.085,408.238 189,401.5C 192.592,394.643 196.426,387.976 200.5,381.5 Z"/></g>
<g><path style="opacity:1" fill="#fb5481" d="M 92.5,357.5 C 97.8961,369.292 103.563,380.959 109.5,392.5C 104.481,392.752 99.4814,393.252 94.5,394C 91.9561,396.093 88.9561,397.093 85.5,397C 85.8333,397.333 86.1667,397.667 86.5,398C 82.4513,398.113 78.7847,399.28 75.5,401.5C 76.6527,402.687 76.6527,403.687 75.5,404.5C 68.8104,393.454 63.477,381.787 59.5,369.5C 59.67,368.178 59.3366,367.011 58.5,366C 68.9784,364.311 79.3117,362.311 89.5,360C 90.5707,359.148 91.5707,358.315 92.5,357.5 Z"/></g>
<g><path style="opacity:1" fill="#d9d1ec" d="M 318.5,394.5 C 320.082,397.335 321.415,400.335 322.5,403.5C 321.398,407.767 318.731,409.267 314.5,408C 313.023,406.188 311.69,404.355 310.5,402.5C 308.23,397.725 305.73,393.058 303,388.5C 302.007,382.498 304.507,380.332 310.5,382C 313.066,386.316 315.733,390.483 318.5,394.5 Z"/></g>
<g><path style="opacity:1" fill="#dd0a55" d="M 439.5,396.5 C 426.969,420.378 410.303,441.045 389.5,458.5C 384.214,461.788 379.214,465.454 374.5,469.5C 365.825,474.503 357.159,479.503 348.5,484.5C 325.375,495.698 301.042,502.698 275.5,505.5C 271.353,504.675 267.019,504.175 262.5,504C 264.516,500.985 266.683,500.818 269,503.5C 270.5,502 272,500.5 273.5,499C 274.784,498.316 275.951,498.483 277,499.5C 279.128,496.542 281.794,495.876 285,497.5C 286.667,495.833 288.333,494.167 290,492.5C 291,492.833 292,493.167 293,493.5C 295.076,490.412 297.909,488.579 301.5,488C 303.167,486.333 304.833,484.667 306.5,483C 310.361,484.286 313.361,483.286 315.5,480C 316.784,479.316 317.951,479.483 319,480.5C 320.833,478.667 322.667,476.833 324.5,475C 325.784,474.316 326.951,474.483 328,475.5C 330.716,471.766 334.216,469.266 338.5,468C 341.5,465 344.5,462 347.5,459C 348.5,458.333 349.5,458.333 350.5,459C 349.346,459.914 349.513,460.747 351,461.5C 357.075,455.388 363.575,449.888 370.5,445C 371.766,444.691 372.933,444.191 374,443.5C 374.333,443.833 374.667,444.167 375,444.5C 379.167,440.333 383.333,436.167 387.5,432C 389.167,431.667 390.833,431.333 392.5,431C 396.194,426.287 400.694,422.787 406,420.5C 406.333,420.833 406.667,421.167 407,421.5C 416.529,410.623 427.195,401.29 439,393.5C 439.483,394.448 439.649,395.448 439.5,396.5 Z"/></g>
<g><path style="opacity:1" fill="#d3c7e7" d="M 260.5,420.5 C 257.755,426.686 254.421,427.019 250.5,421.5C 250.334,413.493 250.5,405.493 251,397.5C 254,394.833 257,394.833 260,397.5C 260.5,405.159 260.666,412.826 260.5,420.5 Z"/></g>
<g><path style="opacity:1" fill="#f53d74" d="M 148.5,397.5 C 151.876,400.878 155.543,403.878 159.5,406.5C 168.585,415.219 178.918,422.219 190.5,427.5C 197.071,430.904 203.738,433.904 210.5,436.5C 208.606,437.048 206.94,438.048 205.5,439.5C 205.5,438.5 205.5,437.5 205.5,436.5C 204.522,436.977 203.689,437.643 203,438.5C 202.383,437.551 202.549,436.718 203.5,436C 199.5,435.667 195.5,435.333 191.5,435C 192.5,434 193.5,433 194.5,432C 194.167,431.833 193.833,431.667 193.5,431.5C 185.717,432.607 178.384,432.607 171.5,431.5C 169.833,432.833 168.167,434.167 166.5,435.5C 165.707,434.645 166.04,433.811 167.5,433C 166.874,432.25 166.374,431.416 166,430.5C 159.714,430.833 153.714,431.167 148,431.5C 143,427.833 138,424.167 133,420.5C 131.189,421.078 129.355,421.578 127.5,422C 128.167,422.333 128.833,422.667 129.5,423C 121.923,424.652 114.256,425.985 106.5,427C 108.167,427.333 109.833,427.667 111.5,428C 106.833,428.333 102.167,428.667 97.5,429C 96.244,429.417 95.5774,430.25 95.5,431.5C 90.0685,425.734 85.4019,419.401 81.5,412.5C 81.4606,411.417 81.1272,410.417 80.5,409.5C 81.5,409.167 82.5,408.833 83.5,408.5C 95.094,407.015 106.427,404.682 117.5,401.5C 116.248,399.999 115.248,398.332 114.5,396.5C 115,396.167 115.5,395.833 116,395.5C 117.722,395.611 117.888,396.111 116.5,397C 127.161,397.5 137.828,397.667 148.5,397.5 Z"/></g>
<g><path style="opacity:1" fill="#ea1f67" d="M 409.5,375.5 C 394.036,406.298 371.369,430.298 341.5,447.5C 327.926,454.29 313.926,459.956 299.5,464.5C 271.264,470.965 242.93,471.131 214.5,465C 207.637,463.101 200.971,460.934 194.5,458.5C 196.17,458.249 197.67,457.582 199,456.5C 202.556,456.056 205.89,456.056 209,456.5C 210.113,454.2 211.613,453.867 213.5,455.5C 215.055,455.278 216.389,454.611 217.5,453.5C 219.017,454.911 220.351,454.744 221.5,453C 226.838,452.265 232.172,451.932 237.5,452C 234.649,453.881 234.982,454.715 238.5,454.5C 242.024,453.185 245.691,452.185 249.5,451.5C 251.496,452.61 253.329,452.276 255,450.5C 257.089,450.745 259.089,450.745 261,450.5C 264.014,453.265 266.514,452.765 268.5,449C 272.285,448.627 275.785,447.461 279,445.5C 280.194,446.43 281.527,447.097 283,447.5C 284.659,446.02 286.492,444.686 288.5,443.5C 289.086,443.709 289.586,444.043 290,444.5C 292.668,441.361 296.168,439.861 300.5,440C 302.305,439.028 303.972,437.861 305.5,436.5C 306.086,436.709 306.586,437.043 307,437.5C 308.688,435.955 310.688,434.955 313,434.5C 313.414,434.957 313.914,435.291 314.5,435.5C 316.193,433.973 318.027,432.64 320,431.5C 320.414,431.957 320.914,432.291 321.5,432.5C 323.742,430.461 326.242,428.795 329,427.5C 329.195,426.181 329.028,424.847 328.5,423.5C 329.605,422.4 330.938,421.733 332.5,421.5C 338.682,421.325 343.515,418.658 347,413.5C 348.049,414.517 349.216,414.684 350.5,414C 356,408.5 361.5,403 367,397.5C 369.476,397.453 371.809,397.786 374,398.5C 377.5,395 381,391.5 384.5,388C 393.195,384.286 401.528,380.12 409.5,375.5 Z"/></g>
<g><path style="opacity:1" fill="#f12f6f" d="M 210.5,436.5 C 216.533,437.706 222.533,439.04 228.5,440.5C 242.828,442.672 257.161,443.005 271.5,441.5C 291.786,439.515 310.786,433.515 328.5,423.5C 329.028,424.847 329.195,426.181 329,427.5C 326.242,428.795 323.742,430.461 321.5,432.5C 320.914,432.291 320.414,431.957 320,431.5C 318.027,432.64 316.193,433.973 314.5,435.5C 313.914,435.291 313.414,434.957 313,434.5C 310.688,434.955 308.688,435.955 307,437.5C 306.586,437.043 306.086,436.709 305.5,436.5C 303.972,437.861 302.305,439.028 300.5,440C 296.168,439.861 292.668,441.361 290,444.5C 289.586,444.043 289.086,443.709 288.5,443.5C 286.492,444.686 284.659,446.02 283,447.5C 281.527,447.097 280.194,446.43 279,445.5C 275.785,447.461 272.285,448.627 268.5,449C 266.514,452.765 264.014,453.265 261,450.5C 259.089,450.745 257.089,450.745 255,450.5C 253.329,452.276 251.496,452.61 249.5,451.5C 245.691,452.185 242.024,453.185 238.5,454.5C 234.982,454.715 234.649,453.881 237.5,452C 232.172,451.932 226.838,452.265 221.5,453C 220.351,454.744 219.017,454.911 217.5,453.5C 216.389,454.611 215.055,455.278 213.5,455.5C 211.613,453.867 210.113,454.2 209,456.5C 205.89,456.056 202.556,456.056 199,456.5C 197.67,457.582 196.17,458.249 194.5,458.5C 179.072,452.537 164.572,444.87 151,435.5C 148.202,435.858 145.536,435.858 143,435.5C 141.921,437.394 140.587,437.727 139,436.5C 136.833,438.667 134.667,440.833 132.5,443C 126.501,444.423 120.667,446.256 115,448.5C 113.97,448.836 113.47,449.503 113.5,450.5C 106.797,444.798 100.797,438.464 95.5,431.5C 95.5774,430.25 96.244,429.417 97.5,429C 102.167,428.667 106.833,428.333 111.5,428C 109.833,427.667 108.167,427.333 106.5,427C 114.256,425.985 121.923,424.652 129.5,423C 128.833,422.667 128.167,422.333 127.5,422C 129.355,421.578 131.189,421.078 133,420.5C 138,424.167 143,427.833 148,431.5C 153.714,431.167 159.714,430.833 166,430.5C 166.374,431.416 166.874,432.25 167.5,433C 166.04,433.811 165.707,434.645 166.5,435.5C 168.167,434.167 169.833,432.833 171.5,431.5C 178.384,432.607 185.717,432.607 193.5,431.5C 193.833,431.667 194.167,431.833 194.5,432C 193.5,433 192.5,434 191.5,435C 195.5,435.333 199.5,435.667 203.5,436C 202.549,436.718 202.383,437.551 203,438.5C 203.689,437.643 204.522,436.977 205.5,436.5C 205.5,437.5 205.5,438.5 205.5,439.5C 206.94,438.048 208.606,437.048 210.5,436.5 Z"/></g>
<g><path style="opacity:1" fill="#e30b58" d="M 447.5,379.5 C 445.622,385.587 442.955,391.254 439.5,396.5C 439.649,395.448 439.483,394.448 439,393.5C 427.195,401.29 416.529,410.623 407,421.5C 406.667,421.167 406.333,420.833 406,420.5C 400.694,422.787 396.194,426.287 392.5,431C 390.833,431.333 389.167,431.667 387.5,432C 383.333,436.167 379.167,440.333 375,444.5C 374.667,444.167 374.333,443.833 374,443.5C 372.933,444.191 371.766,444.691 370.5,445C 363.575,449.888 357.075,455.388 351,461.5C 349.513,460.747 349.346,459.914 350.5,459C 349.5,458.333 348.5,458.333 347.5,459C 344.5,462 341.5,465 338.5,468C 334.216,469.266 330.716,471.766 328,475.5C 326.951,474.483 325.784,474.316 324.5,475C 322.667,476.833 320.833,478.667 319,480.5C 317.951,479.483 316.784,479.316 315.5,480C 313.361,483.286 310.361,484.286 306.5,483C 304.833,484.667 303.167,486.333 301.5,488C 297.909,488.579 295.076,490.412 293,493.5C 292,493.167 291,492.833 290,492.5C 288.333,494.167 286.667,495.833 285,497.5C 281.794,495.876 279.128,496.542 277,499.5C 275.951,498.483 274.784,498.316 273.5,499C 272,500.5 270.5,502 269,503.5C 266.683,500.818 264.516,500.985 262.5,504C 267.019,504.175 271.353,504.675 275.5,505.5C 249.747,507.257 224.414,504.923 199.5,498.5C 198.653,497.034 197.32,496.2 195.5,496C 198.5,495.667 201.5,495.333 204.5,495C 208.911,491.841 213.911,490.174 219.5,490C 223.962,486.962 228.962,485.295 234.5,485C 237.506,482.842 240.839,481.342 244.5,480.5C 248.412,479.448 252.245,479.448 256,480.5C 257.263,478.203 259.097,477.37 261.5,478C 261.167,478.333 260.833,478.667 260.5,479C 263.911,479.342 267.411,478.509 271,476.5C 271.333,476.833 271.667,477.167 272,477.5C 274.943,473.725 278.277,472.725 282,474.5C 284.662,470.155 288.495,467.988 293.5,468C 295.257,466.25 297.257,465.084 299.5,464.5C 313.926,459.956 327.926,454.29 341.5,447.5C 343.199,447.66 344.866,447.494 346.5,447C 350.167,444.667 353.833,442.333 357.5,440C 365.331,438.496 372.164,434.996 378,429.5C 378.333,429.833 378.667,430.167 379,430.5C 390.215,424.646 400.382,417.146 409.5,408C 410.5,407.333 411.5,407.333 412.5,408C 411.5,409 410.5,410 409.5,411C 410.167,411.667 410.833,411.667 411.5,411C 423.157,400.333 434.157,389.666 444.5,379C 445.749,378.26 446.749,378.427 447.5,379.5 Z"/></g>
<g><path style="opacity:0.999" fill="#424142" d="M 389.5,458.5 C 400.764,467.095 411.097,476.761 420.5,487.5C 419.903,488.139 419.07,488.472 418,488.5C 404.225,486.789 390.392,486.123 376.5,486.5C 383.989,485.671 391.656,485.171 399.5,485C 390.994,479.97 382.661,474.804 374.5,469.5C 379.214,465.454 384.214,461.788 389.5,458.5 Z"/></g>
<g><path style="opacity:1" fill="#e9145d" d="M 194.5,458.5 C 200.971,460.934 207.637,463.101 214.5,465C 242.93,471.131 271.264,470.965 299.5,464.5C 297.257,465.084 295.257,466.25 293.5,468C 288.495,467.988 284.662,470.155 282,474.5C 278.277,472.725 274.943,473.725 272,477.5C 271.667,477.167 271.333,476.833 271,476.5C 267.411,478.509 263.911,479.342 260.5,479C 260.833,478.667 261.167,478.333 261.5,478C 259.097,477.37 257.263,478.203 256,480.5C 252.245,479.448 248.412,479.448 244.5,480.5C 240.839,481.342 237.506,482.842 234.5,485C 228.962,485.295 223.962,486.962 219.5,490C 213.911,490.174 208.911,491.841 204.5,495C 201.5,495.333 198.5,495.667 195.5,496C 197.32,496.2 198.653,497.034 199.5,498.5C 186.695,495.01 174.361,490.344 162.5,484.5C 154.037,479.766 145.703,474.766 137.5,469.5C 132.523,465.342 127.189,461.676 121.5,458.5C 119.14,455.473 116.473,452.806 113.5,450.5C 113.47,449.503 113.97,448.836 115,448.5C 120.667,446.256 126.501,444.423 132.5,443C 134.667,440.833 136.833,438.667 139,436.5C 140.587,437.727 141.921,437.394 143,435.5C 145.536,435.858 148.202,435.858 151,435.5C 164.572,444.87 179.072,452.537 194.5,458.5 Z"/></g>
<g><path style="opacity:1" fill="#414041" d="M 121.5,458.5 C 127.189,461.676 132.523,465.342 137.5,469.5C 128.233,474.135 119.233,479.302 110.5,485C 118.677,485.171 126.677,485.671 134.5,486.5C 120.593,486.007 106.76,486.674 93,488.5C 91.9302,488.472 91.0968,488.139 90.5,487.5C 99.903,476.761 110.236,467.095 121.5,458.5 Z"/></g>
<g><path style="opacity:1" fill="#282728" d="M 137.5,469.5 C 145.703,474.766 154.037,479.766 162.5,484.5C 161.167,486.167 159.833,487.833 158.5,489.5C 150.562,488.062 142.562,487.062 134.5,486.5C 126.677,485.671 118.677,485.171 110.5,485C 119.233,479.302 128.233,474.135 137.5,469.5 Z"/></g>
<g><path style="opacity:1" fill="#282727" d="M 374.5,469.5 C 382.661,474.804 390.994,479.97 399.5,485C 391.656,485.171 383.989,485.671 376.5,486.5C 368.372,486.566 360.372,487.566 352.5,489.5C 351.167,487.833 349.833,486.167 348.5,484.5C 357.159,479.503 365.825,474.503 374.5,469.5 Z"/></g>
<g><path style="opacity:0.994" fill="#545354" d="M 134.5,486.5 C 142.562,487.062 150.562,488.062 158.5,489.5C 160.903,489.448 163.236,489.781 165.5,490.5C 162.388,494.442 158.721,497.942 154.5,501C 127.502,501.5 100.502,501.667 73.5,501.5C 73.5907,497.818 74.924,494.651 77.5,492C 81.9178,490.648 86.2512,489.148 90.5,487.5C 91.0968,488.139 91.9302,488.472 93,488.5C 106.76,486.674 120.593,486.007 134.5,486.5 Z"/></g>
<g><path style="opacity:0.992" fill="#545454" d="M 376.5,486.5 C 390.392,486.123 404.225,486.789 418,488.5C 419.07,488.472 419.903,488.139 420.5,487.5C 424.242,488.837 427.909,490.171 431.5,491.5C 430.325,491.281 429.325,491.614 428.5,492.5C 425.979,495.854 422.979,498.688 419.5,501C 392.502,501.5 365.502,501.667 338.5,501.5C 339.465,493.332 344.132,489.332 352.5,489.5C 360.372,487.566 368.372,486.566 376.5,486.5 Z"/></g>
<g><path style="opacity:0.99" fill="#424142" d="M 165.5,490.5 C 167.911,491.517 169.578,493.184 170.5,495.5C 169.883,495.389 169.383,495.056 169,494.5C 166.462,497.697 163.962,500.864 161.5,504C 159.608,504.973 157.608,505.64 155.5,506C 128.761,506.176 102.095,506.676 75.5,507.5C 74.2702,505.703 73.6036,503.703 73.5,501.5C 100.502,501.667 127.502,501.5 154.5,501C 158.721,497.942 162.388,494.442 165.5,490.5 Z"/></g>
<g><path style="opacity:0.995" fill="#414041" d="M 431.5,491.5 C 433.404,491.738 434.738,492.738 435.5,494.5C 432.03,496.819 429.363,499.985 427.5,504C 425.913,504.862 424.246,505.529 422.5,506C 395.33,506.168 368.33,506.668 341.5,507.5C 339.755,505.967 338.755,503.967 338.5,501.5C 365.502,501.667 392.502,501.5 419.5,501C 422.979,498.688 425.979,495.854 428.5,492.5C 429.325,491.614 430.325,491.281 431.5,491.5 Z"/></g>
<g><path style="opacity:0.996" fill="#2d2d2d" d="M 170.5,495.5 C 173.52,501.795 172.187,507.129 166.5,511.5C 137.5,511.5 108.5,511.5 79.5,511.5C 77.8608,510.527 76.5274,509.194 75.5,507.5C 102.095,506.676 128.761,506.176 155.5,506C 157.608,505.64 159.608,504.973 161.5,504C 163.962,500.864 166.462,497.697 169,494.5C 169.383,495.056 169.883,495.389 170.5,495.5 Z"/></g>
<g><path style="opacity:0.993" fill="#2d2d2d" d="M 435.5,494.5 C 438.954,501.347 437.621,507.014 431.5,511.5C 402.5,511.5 373.5,511.5 344.5,511.5C 343.211,510.363 342.211,509.03 341.5,507.5C 368.33,506.668 395.33,506.168 422.5,506C 424.246,505.529 425.913,504.862 427.5,504C 429.363,499.985 432.03,496.819 435.5,494.5 Z"/></g>
</svg>
