<?xml version="1.0" encoding="UTF-8"?>
<!DOCTYPE svg PUBLIC "-//W3C//DTD SVG 1.1//EN" "http://www.w3.org/Graphics/SVG/1.1/DTD/svg11.dtd">
<svg xmlns="http://www.w3.org/2000/svg" version="1.1" width="512px" height="512px" style="shape-rendering:geometricPrecision; text-rendering:geometricPrecision; image-rendering:optimizeQuality; fill-rule:evenodd; clip-rule:evenodd" xmlns:xlink="http://www.w3.org/1999/xlink">
<g><path style="opacity:0.939" fill="#ee4353" d="M 70.5,-0.5 C 74.1667,-0.5 77.8333,-0.5 81.5,-0.5C 122.963,25.4032 164.63,51.0699 206.5,76.5C 206.027,77.9063 205.027,78.573 203.5,78.5C 162.649,53.1619 121.649,27.9952 80.5,3C 77.1322,2.45721 73.7989,2.62388 70.5,3.5C 70.521,8.06732 72.1877,11.9007 75.5,15C 115.385,39.7253 155.385,64.2253 195.5,88.5C 194.89,89.391 194.557,90.391 194.5,91.5C 194.167,91.5 193.833,91.5 193.5,91.5C 153.195,66.6777 112.861,41.8444 72.5,17C 68.1555,13.1245 66.4888,8.29116 67.5,2.5C 68.3065,1.27187 69.3065,0.271873 70.5,-0.5 Z"/></g>
<g><path style="opacity:1" fill="#ef536b" d="M 203.5,78.5 C 200.453,81.5448 197.787,84.8781 195.5,88.5C 155.385,64.2253 115.385,39.7253 75.5,15C 72.1877,11.9007 70.521,8.06732 70.5,3.5C 73.7989,2.62388 77.1322,2.45721 80.5,3C 121.649,27.9952 162.649,53.1619 203.5,78.5 Z"/></g>
<g><path style="opacity:1" fill="#d42129" d="M 67.5,2.5 C 66.4888,8.29116 68.1555,13.1245 72.5,17C 112.861,41.8444 153.195,66.6777 193.5,91.5C 192.489,94.9404 191.489,98.2737 190.5,101.5C 150.065,76.1079 109.398,50.9412 68.5,26C 59.8425,18.3177 59.5092,10.4844 67.5,2.5 Z"/></g>
<g><path style="opacity:0.936" fill="#ee4354" d="M 464.5,39.5 C 466.788,46.518 465.455,52.6847 460.5,58C 418.746,75.8601 376.746,93.0268 334.5,109.5C 334.5,108.833 334.5,108.167 334.5,107.5C 374.808,91.0153 415.141,74.5153 455.5,58C 461.316,54.7256 463.649,49.8922 462.5,43.5C 417.932,61.9606 373.599,80.6273 329.5,99.5C 327.413,98.4154 326.08,96.7488 325.5,94.5C 368.596,77.2996 411.596,59.7996 454.5,42C 457.72,40.6476 461.053,39.8143 464.5,39.5 Z"/></g>
<g><path style="opacity:1" fill="#d42128" d="M 464.5,39.5 C 471.546,40.0462 476.046,43.7129 478,50.5C 479.145,56.7324 477.312,61.8991 472.5,66C 427.412,85.1936 382.079,103.694 336.5,121.5C 336.471,117.36 335.804,113.36 334.5,109.5C 376.746,93.0268 418.746,75.8601 460.5,58C 465.455,52.6847 466.788,46.518 464.5,39.5 Z"/></g>
<g><path style="opacity:1" fill="#ef536b" d="M 334.5,107.5 C 332.847,104.869 331.181,102.203 329.5,99.5C 373.599,80.6273 417.932,61.9606 462.5,43.5C 463.649,49.8922 461.316,54.7256 455.5,58C 415.141,74.5153 374.808,91.0153 334.5,107.5 Z"/></g>
<g><path style="opacity:0.978" fill="#f69e36" d="M 190.5,101.5 C 191.489,98.2737 192.489,94.9404 193.5,91.5C 193.833,91.5 194.167,91.5 194.5,91.5C 194.557,90.391 194.89,89.391 195.5,88.5C 197.787,84.8781 200.453,81.5448 203.5,78.5C 205.027,78.573 206.027,77.9063 206.5,76.5C 227.585,67.6927 242.752,73.6927 252,94.5C 255.72,112.561 249.22,125.394 232.5,133C 207.213,137.546 193.213,127.046 190.5,101.5 Z"/></g>
<g><path style="opacity:1" fill="#f9ab53" d="M 194.5,91.5 C 205.315,74.0644 219.981,69.8977 238.5,79C 243.284,82.2413 246.617,86.5746 248.5,92C 242.347,111.75 229.013,119.75 208.5,116C 202.206,113.709 197.039,109.875 193,104.5C 193.271,100.191 193.771,95.8581 194.5,91.5 Z"/></g>
<g><path style="opacity:1" fill="#fbb671" d="M 231.5,84.5 C 240.28,84.4602 242.78,88.4602 239,96.5C 236.11,102.861 231.277,105.361 224.5,104C 220.738,99.8179 220.571,95.3179 224,90.5C 226.114,87.8792 228.614,85.8792 231.5,84.5 Z"/></g>
<g><path style="opacity:1" fill="#ec9728" d="M 325.5,94.5 C 326.08,96.7488 327.413,98.4154 329.5,99.5C 331.181,102.203 332.847,104.869 334.5,107.5C 334.5,108.167 334.5,108.833 334.5,109.5C 335.804,113.36 336.471,117.36 336.5,121.5C 332.888,141.613 320.888,151.113 300.5,150C 280.516,144.982 272.016,132.148 275,111.5C 282.33,91.7519 296.163,84.5853 316.5,90C 319.553,91.5266 322.553,93.0266 325.5,94.5 Z"/></g>
<g><path style="opacity:1" fill="#f9ab53" d="M 298.5,89.5 C 304.177,89.0963 309.677,89.763 315,91.5C 324.6,108.764 321.766,123.598 306.5,136C 299.669,140.07 292.335,141.403 284.5,140C 272.007,124.753 272.673,110.086 286.5,96C 290.434,93.5361 294.434,91.3694 298.5,89.5 Z"/></g>
<g><path style="opacity:1" fill="#fbb671" d="M 289.5,99.5 C 296.819,97.6808 300.319,100.347 300,107.5C 297.426,115.699 291.926,119.199 283.5,118C 280.806,115.347 279.973,112.18 281,108.5C 283.362,104.973 286.196,101.973 289.5,99.5 Z"/></g>
<g><path style="opacity:1" fill="#ffe5a4" d="M 167.5,140.5 C 169.415,140.216 171.081,140.549 172.5,141.5C 171.448,141.351 170.448,141.517 169.5,142C 171.5,142.333 173.5,142.667 175.5,143C 173.833,143.167 172.167,143.333 170.5,143.5C 150.863,141.791 131.196,141.291 111.5,142C 107.057,142.528 102.723,143.528 98.5,145C 93.0824,148.529 93.4157,151.529 99.5,154C 178.265,178.794 258.931,191.461 341.5,192C 349.111,191.4 356.444,189.734 363.5,187C 356.538,182.899 349.204,179.566 341.5,177C 329.11,173.486 316.776,169.82 304.5,166C 316.182,167.776 327.682,170.61 339,174.5C 339.765,174.43 340.265,174.097 340.5,173.5C 349.477,176.266 358.144,179.599 366.5,183.5C 365.761,183.369 365.094,183.536 364.5,184C 368.327,187.095 368.327,190.095 364.5,193C 361.343,194.578 358.009,195.578 354.5,196C 332.179,197.899 309.846,197.899 287.5,196C 232.681,190.694 178.681,181.027 125.5,167C 114.422,163.649 103.422,160.149 92.5,156.5C 87.9912,154.896 84.6578,151.896 82.5,147.5C 82.3284,146.508 82.6618,145.842 83.5,145.5C 83.4346,145.938 83.6012,146.272 84,146.5C 86.7716,144.239 89.9382,142.739 93.5,142C 115.962,139.058 138.462,138.891 161,141.5C 163.361,141.496 165.527,141.163 167.5,140.5 Z"/></g>
<g><path style="opacity:0.514" fill="#ffeecb" d="M 167.5,140.5 C 165.527,141.163 163.361,141.496 161,141.5C 138.462,138.891 115.962,139.058 93.5,142C 89.9382,142.739 86.7716,144.239 84,146.5C 83.6012,146.272 83.4346,145.938 83.5,145.5C 84.1223,143.665 85.4556,142.498 87.5,142C 92.3504,140.268 97.3504,139.268 102.5,139C 124.205,138.152 145.872,138.652 167.5,140.5 Z"/></g>
<g><path style="opacity:1" fill="#ffe8b6" d="M 172.5,141.5 C 229.571,146.648 285.571,157.314 340.5,173.5C 340.265,174.097 339.765,174.43 339,174.5C 327.682,170.61 316.182,167.776 304.5,166C 316.776,169.82 329.11,173.486 341.5,177C 349.204,179.566 356.538,182.899 363.5,187C 356.444,189.734 349.111,191.4 341.5,192C 258.931,191.461 178.265,178.794 99.5,154C 93.4157,151.529 93.0824,148.529 98.5,145C 102.723,143.528 107.057,142.528 111.5,142C 131.196,141.291 150.863,141.791 170.5,143.5C 172.167,143.333 173.833,143.167 175.5,143C 173.5,142.667 171.5,142.333 169.5,142C 170.448,141.517 171.448,141.351 172.5,141.5 Z"/></g>
<g><path style="opacity:1" fill="#fff2dd" d="M 121.5,144.5 C 130.839,144.334 140.173,144.5 149.5,145C 152.167,145.667 154.833,146.333 157.5,147C 160.915,148.143 161.249,149.81 158.5,152C 156.754,152.471 155.087,153.138 153.5,154C 140.403,156.301 127.403,155.968 114.5,153C 109.971,151.352 109.637,149.352 113.5,147C 116.31,146.218 118.977,145.384 121.5,144.5 Z"/></g>
<g><path style="opacity:1" fill="#f7cf73" d="M 82.5,147.5 C 84.6578,151.896 87.9912,154.896 92.5,156.5C 93.7489,158.136 95.4156,159.303 97.5,160C 130.197,172.925 163.864,182.592 198.5,189C 246.352,198.857 294.686,204.69 343.5,206.5C 353.922,206.685 364.255,205.852 374.5,204C 379.168,203.522 382.502,201.355 384.5,197.5C 385.964,201.019 386.964,204.686 387.5,208.5C 383.581,211.673 383.581,214.84 387.5,218C 388.816,218.528 389.483,218.028 389.5,216.5C 390.434,217.568 390.768,218.901 390.5,220.5C 389.883,222.229 388.883,223.729 387.5,225C 373.472,229.045 359.139,230.879 344.5,230.5C 269.495,226.916 195.828,215.083 123.5,195C 108.389,190.443 93.7225,184.776 79.5,178C 76.5767,175.955 73.7433,173.788 71,171.5C 69.9914,169.975 69.4914,168.308 69.5,166.5C 69.5569,165.391 69.8902,164.391 70.5,163.5C 74.9627,165.557 77.2961,164.057 77.5,159C 77.3158,157.624 76.6491,156.791 75.5,156.5C 77.4821,153.19 79.8154,150.19 82.5,147.5 Z"/></g>
<g><path style="opacity:1" fill="#ffeee3" d="M 75.5,156.5 C 76.6491,156.791 77.3158,157.624 77.5,159C 77.2961,164.057 74.9627,165.557 70.5,163.5C 71.9336,160.953 73.6002,158.619 75.5,156.5 Z"/></g>
<g><path style="opacity:1" fill="#fedd7e" d="M 92.5,156.5 C 103.422,160.149 114.422,163.649 125.5,167C 178.681,181.027 232.681,190.694 287.5,196C 309.846,197.899 332.179,197.899 354.5,196C 358.009,195.578 361.343,194.578 364.5,193C 368.327,190.095 368.327,187.095 364.5,184C 365.094,183.536 365.761,183.369 366.5,183.5C 373.373,185.519 379.206,189.186 384,194.5C 384.483,195.448 384.649,196.448 384.5,197.5C 382.502,201.355 379.168,203.522 374.5,204C 364.255,205.852 353.922,206.685 343.5,206.5C 294.686,204.69 246.352,198.857 198.5,189C 163.864,182.592 130.197,172.925 97.5,160C 95.4156,159.303 93.7489,158.136 92.5,156.5 Z"/></g>
<g><path style="opacity:1" fill="#fefcf6" d="M 85.5,165.5 C 92.1584,164.344 94.1584,166.844 91.5,173C 88.4904,175.222 85.9904,174.722 84,171.5C 83.2516,169.16 83.7516,167.16 85.5,165.5 Z"/></g>
<g><path style="opacity:0.995" fill="#eb323d" d="M 69.5,166.5 C 69.4914,168.308 69.9914,169.975 71,171.5C 73.7433,173.788 76.5767,175.955 79.5,178C 93.7225,184.776 108.389,190.443 123.5,195C 195.828,215.083 269.495,226.916 344.5,230.5C 359.139,230.879 373.472,229.045 387.5,225C 388.883,223.729 389.883,222.229 390.5,220.5C 391.451,221.919 391.784,223.585 391.5,225.5C 389.5,226.976 387.833,228.809 386.5,231C 379.915,234.041 372.915,235.707 365.5,236C 350.5,236.667 335.5,236.667 320.5,236C 307.844,234.524 295.178,233.524 282.5,233C 286.57,240.974 290.236,249.141 293.5,257.5C 294.333,257.833 295.167,258.167 296,258.5C 329.528,261.267 363.028,260.933 396.5,257.5C 397.11,258.391 397.443,259.391 397.5,260.5C 364.895,263.627 332.228,264.294 299.5,262.5C 228.472,257.268 159.138,243.102 91.5,220C 77.2685,214.881 63.6018,208.714 50.5,201.5C 55.5662,189.026 61.8995,177.36 69.5,166.5 Z"/></g>
<g><path style="opacity:1" fill="#fefcf8" d="M 103.5,171.5 C 109.651,172.103 110.984,174.936 107.5,180C 102.502,181.33 100.336,179.496 101,174.5C 101.698,173.309 102.531,172.309 103.5,171.5 Z"/></g>
<g><path style="opacity:1" fill="#fefcf7" d="M 119.5,177.5 C 126.486,177.331 128.153,180.164 124.5,186C 117.416,186.475 115.749,183.642 119.5,177.5 Z"/></g>
<g><path style="opacity:1" fill="#ee4253" d="M 71.5,180.5 C 93.9983,192.17 117.665,201.003 142.5,207C 184.464,217.038 226.797,225.204 269.5,231.5C 273.825,239.811 277.158,248.477 279.5,257.5C 207.401,250.891 137.735,234.391 70.5,208C 67.0061,206.421 63.6728,204.587 60.5,202.5C 64.1932,195.114 67.8599,187.78 71.5,180.5 Z"/></g>
<g><path style="opacity:1" fill="#fefdfa" d="M 137.5,182.5 C 143.191,182.548 144.857,185.215 142.5,190.5C 136.38,192.882 134.213,190.882 136,184.5C 136.717,183.956 137.217,183.289 137.5,182.5 Z"/></g>
<g><path style="opacity:1" fill="#fefcf6" d="M 155.5,186.5 C 160.5,187.155 162.167,189.822 160.5,194.5C 156.446,197.479 153.779,196.479 152.5,191.5C 153.092,189.577 154.092,187.911 155.5,186.5 Z"/></g>
<g><path style="opacity:1" fill="#ef5369" d="M 76.5,188.5 C 100.695,200.512 126.028,209.679 152.5,216C 190.549,224.743 228.882,232.076 267.5,238C 253.203,239.645 238.869,240.312 224.5,240C 185.216,233.512 146.55,224.512 108.5,213C 95.8416,208.836 83.8416,203.336 72.5,196.5C 73.8599,193.78 75.1932,191.114 76.5,188.5 Z"/></g>
<g><path style="opacity:1" fill="#fefcf6" d="M 171.5,191.5 C 179.543,191.003 181.21,193.836 176.5,200C 174.299,200.825 172.466,200.325 171,198.5C 170.297,196.071 170.463,193.738 171.5,191.5 Z"/></g>
<g><path style="opacity:1" fill="#fefaf2" d="M 190.5,194.5 C 195.989,194.504 197.822,197.171 196,202.5C 193.034,205.265 190.367,204.932 188,201.5C 187.333,200.167 187.333,198.833 188,197.5C 189.045,196.627 189.878,195.627 190.5,194.5 Z"/></g>
<g><path style="opacity:1" fill="#fefcf7" d="M 207.5,198.5 C 214.486,198.331 216.153,201.164 212.5,207C 205.416,207.475 203.749,204.642 207.5,198.5 Z"/></g>
<g><path style="opacity:1" fill="#fefcf7" d="M 225.5,201.5 C 232.486,201.331 234.153,204.164 230.5,210C 223.416,210.475 221.749,207.642 225.5,201.5 Z"/></g>
<g><path style="opacity:1" fill="#522916" d="M 50.5,201.5 C 63.6018,208.714 77.2685,214.881 91.5,220C 159.138,243.102 228.472,257.268 299.5,262.5C 298.167,262.5 296.833,262.5 295.5,262.5C 297.013,268.888 298.68,275.221 300.5,281.5C 228.942,277.088 159.275,263.255 91.5,240C 74.8547,234.071 58.8547,226.905 43.5,218.5C 45.0385,212.434 47.3719,206.767 50.5,201.5 Z"/></g>
<g><path style="opacity:1" fill="#fefcf7" d="M 243.5,204.5 C 250.444,204.272 252.11,207.106 248.5,213C 241.416,213.475 239.749,210.642 243.5,204.5 Z"/></g>
<g><path style="opacity:1" fill="#fefbf5" d="M 260.5,207.5 C 268.543,207.003 270.21,209.836 265.5,216C 263.299,216.825 261.466,216.325 260,214.5C 259.297,212.071 259.463,209.738 260.5,207.5 Z"/></g>
<g><path style="opacity:1" fill="#fefdf9" d="M 279.5,209.5 C 284.459,208.628 286.625,210.628 286,215.5C 280.286,220.239 277.619,218.905 278,211.5C 278.717,210.956 279.217,210.289 279.5,209.5 Z"/></g>
<g><path style="opacity:1" fill="#fef2e4" d="M 387.5,208.5 C 388.768,210.905 389.435,213.572 389.5,216.5C 389.483,218.028 388.816,218.528 387.5,218C 383.581,214.84 383.581,211.673 387.5,208.5 Z"/></g>
<g><path style="opacity:1" fill="#fefdf9" d="M 296.5,211.5 C 303.676,210.985 305.342,213.818 301.5,220C 299.299,220.825 297.466,220.325 296,218.5C 295.297,216.071 295.463,213.738 296.5,211.5 Z"/></g>
<g><path style="opacity:1" fill="#fefbf5" d="M 315.5,212.5 C 321.803,212.924 323.469,215.757 320.5,221C 313.237,221.821 311.571,218.988 315.5,212.5 Z"/></g>
<g><path style="opacity:1" fill="#fefbf3" d="M 370.5,212.5 C 375.5,213.155 377.167,215.822 375.5,220.5C 371.49,223.667 368.823,222.834 367.5,218C 367.613,215.601 368.613,213.768 370.5,212.5 Z"/></g>
<g><path style="opacity:1" fill="#fefcf7" d="M 333.5,213.5 C 339.803,213.924 341.469,216.757 338.5,222C 331.421,222.527 329.754,219.694 333.5,213.5 Z"/></g>
<g><path style="opacity:1" fill="#fefbf3" d="M 352.5,213.5 C 356.803,213.963 358.636,216.296 358,220.5C 351.679,225.204 349.012,223.538 350,215.5C 350.995,214.934 351.828,214.267 352.5,213.5 Z"/></g>
<g><path style="opacity:0.993" fill="#eb303c" d="M 43.5,218.5 C 58.8547,226.905 74.8547,234.071 91.5,240C 159.275,263.255 228.942,277.088 300.5,281.5C 333.199,283.258 365.866,282.591 398.5,279.5C 398.5,280.5 398.5,281.5 398.5,282.5C 384.876,284.104 371.209,285.27 357.5,286C 338.816,286.099 320.149,286.266 301.5,286.5C 307.502,311.879 309.002,337.545 306,363.5C 300.964,391.085 286.798,412.585 263.5,428C 256.626,431.937 249.626,435.603 242.5,439C 282.688,443.884 323.022,445.717 363.5,444.5C 363.068,445.71 362.401,446.71 361.5,447.5C 319.684,448.873 278.017,446.873 236.5,441.5C 177.576,434.414 119.576,422.247 62.5,405C 49.1555,400.574 35.9888,395.741 23,390.5C 22.5357,391.094 22.369,391.761 22.5,392.5C 14.3883,332.725 21.3883,274.725 43.5,218.5 Z"/></g>
<g><path style="opacity:1" fill="#d32027" d="M 391.5,225.5 C 394.268,235.865 395.935,246.532 396.5,257.5C 363.028,260.933 329.528,261.267 296,258.5C 295.167,258.167 294.333,257.833 293.5,257.5C 290.236,249.141 286.57,240.974 282.5,233C 295.178,233.524 307.844,234.524 320.5,236C 335.5,236.667 350.5,236.667 365.5,236C 372.915,235.707 379.915,234.041 386.5,231C 387.833,228.809 389.5,226.976 391.5,225.5 Z"/></g>
<g><path style="opacity:1" fill="#ee4354" d="M 50.5,226.5 C 87.4431,243.425 125.776,256.259 165.5,265C 205.389,273.961 245.722,280.461 286.5,284.5C 290.488,304.966 291.988,325.633 291,346.5C 285.285,384.546 264.452,410.379 228.5,424C 218.461,427.908 208.127,430.741 197.5,432.5C 141.232,423.688 86.2316,409.855 32.5,391C 25.343,334.763 31.343,279.93 50.5,226.5 Z"/></g>
<g><path style="opacity:1" fill="#ef5369" d="M 75.5,287.5 C 66.8837,285.312 58.8837,286.645 51.5,291.5C 53.812,277.612 57.1454,263.946 61.5,250.5C 129.14,276.91 199.14,293.243 271.5,299.5C 272.2,303.798 272.533,308.131 272.5,312.5C 206.531,304.73 142.531,289.063 80.5,265.5C 78.3279,272.69 76.6612,280.024 75.5,287.5 Z"/></g>
<g><path style="opacity:1" fill="#451f12" d="M 397.5,260.5 C 397.653,266.845 397.986,273.178 398.5,279.5C 365.866,282.591 333.199,283.258 300.5,281.5C 298.68,275.221 297.013,268.888 295.5,262.5C 296.833,262.5 298.167,262.5 299.5,262.5C 332.228,264.294 364.895,263.627 397.5,260.5 Z"/></g>
<g><path style="opacity:1" fill="#d32027" d="M 398.5,282.5 C 399.601,339.333 387.934,393.333 363.5,444.5C 323.022,445.717 282.688,443.884 242.5,439C 249.626,435.603 256.626,431.937 263.5,428C 286.798,412.585 300.964,391.085 306,363.5C 309.002,337.545 307.502,311.879 301.5,286.5C 320.149,286.266 338.816,286.099 357.5,286C 371.209,285.27 384.876,284.104 398.5,282.5 Z"/></g>
<g><path style="opacity:1" fill="#d4252b" d="M 56.5,375.5 C 77.2971,375.708 88.6304,365.375 90.5,344.5C 90.3701,342.625 90.0367,340.792 89.5,339C 97.971,326.238 98.6376,313.071 91.5,299.5C 92.3285,298.668 93.1618,299.001 94,300.5C 102.318,313.28 102.652,326.28 95,339.5C 95.9433,352.68 91.7767,363.847 82.5,373C 73.6999,379.009 64.3665,380.009 54.5,376C 55.0944,375.536 55.7611,375.369 56.5,375.5 Z"/></g>
<g><path style="opacity:1" fill="#ef5369" d="M 176.5,321.5 C 193.573,319.674 208.906,323.841 222.5,334C 241.533,354.102 242.367,374.935 225,396.5C 203.053,416.673 178.887,419.84 152.5,406C 129.867,388.837 125.701,368.003 140,343.5C 149.598,331.702 161.764,324.369 176.5,321.5 Z"/></g>
<g><path style="opacity:1" fill="#d8d4de" d="M 75.5,287.5 C 79.1323,288.984 82.4656,290.984 85.5,293.5C 87.8606,295.194 89.8606,297.194 91.5,299.5C 98.6376,313.071 97.971,326.238 89.5,339C 90.0367,340.792 90.3701,342.625 90.5,344.5C 88.6304,365.375 77.2971,375.708 56.5,375.5C 39.1939,369.304 32.0272,356.971 35,338.5C 36.1697,335.495 37.3364,332.495 38.5,329.5C 34.502,313.824 38.8354,301.157 51.5,291.5C 58.8837,286.645 66.8837,285.312 75.5,287.5 Z"/></g>
<g><path style="opacity:1" fill="#d4292e" d="M 44.5,340.5 C 42.2512,349.483 43.5846,357.816 48.5,365.5C 39.4672,357.519 37.1339,347.852 41.5,336.5C 42.5244,337.852 43.5244,339.185 44.5,340.5 Z"/></g>
<g><path style="opacity:1" fill="#efeff6" d="M 56.5,321.5 C 60.0958,321.153 63.4291,321.82 66.5,323.5C 71.2007,321.845 74.8674,323.178 77.5,327.5C 67.1902,338.163 55.5235,339.996 42.5,333C 45.8768,327.444 50.5434,323.611 56.5,321.5 Z"/></g>
<g><path style="opacity:1" fill="#f2f2f8" d="M 85.5,293.5 C 87.5924,303.208 86.5924,312.542 82.5,321.5C 81.635,322.583 80.635,322.749 79.5,322C 75.1454,319.255 70.9788,316.422 67,313.5C 56.3747,314.98 47.3747,319.646 40,327.5C 36.7092,310.249 42.8758,297.749 58.5,290C 67.8093,287.079 76.3093,288.579 84,294.5C 84.3826,293.944 84.8826,293.611 85.5,293.5 Z"/></g>
<g><path style="opacity:1" fill="#ef4f63" d="M 44.5,340.5 C 47.9829,344.637 52.3162,347.637 57.5,349.5C 66.3563,354.8 75.3563,354.8 84.5,349.5C 81.0722,364.382 71.7388,371.215 56.5,370C 53.3672,369.14 50.7005,367.64 48.5,365.5C 43.5846,357.816 42.2512,349.483 44.5,340.5 Z"/></g>
<g><path style="opacity:1" fill="#d42a2f" d="M 84.5,349.5 C 75.3563,354.8 66.3563,354.8 57.5,349.5C 67.6692,351.999 76.8358,349.999 85,343.5C 85.7891,345.712 85.6225,347.712 84.5,349.5 Z"/></g>
<g><path style="opacity:1" fill="#b9282c" d="M 364.5,342.5 C 366.017,342.511 367.184,343.177 368,344.5C 376.216,357.307 376.55,370.307 369,383.5C 370.759,400.487 364.259,412.987 349.5,421C 346.937,422.079 344.271,422.579 341.5,422.5C 359.681,416.198 367.847,403.198 366,383.5C 371.202,374.883 372.869,365.55 371,355.5C 369.334,350.834 367.167,346.501 364.5,342.5 Z"/></g>
<g><path style="opacity:1" fill="#d8d2db" d="M 364.5,342.5 C 367.167,346.501 369.334,350.834 371,355.5C 372.869,365.55 371.202,374.883 366,383.5C 367.847,403.198 359.681,416.198 341.5,422.5C 321.509,422.51 310.842,412.51 309.5,392.5C 310.049,386.636 311.383,380.97 313.5,375.5C 309.822,355.711 317.155,341.877 335.5,334C 346.565,332.206 356.231,335.04 364.5,342.5 Z"/></g>
<g><path style="opacity:1" fill="#efeff6" d="M 334.5,367.5 C 337.269,367.8 339.769,368.8 342,370.5C 346.723,368.647 350.556,369.813 353.5,374C 343.53,384.038 332.03,386.205 319,380.5C 319.121,377.336 320.621,374.836 323.5,373C 326.99,370.588 330.657,368.755 334.5,367.5 Z"/></g>
<g><path style="opacity:1" fill="#f2f2f8" d="M 336.5,335.5 C 345.442,334.54 353.609,336.54 361,341.5C 363.973,351.584 362.473,360.918 356.5,369.5C 351.89,366.033 347.057,363.033 342,360.5C 331.626,361.353 322.96,365.687 316,373.5C 312.57,355.363 319.403,342.696 336.5,335.5 Z"/></g>
<g><path style="opacity:1" fill="#d02429" d="M 316.5,382.5 C 328.325,399.076 342.825,401.743 360,390.5C 359.686,408.481 350.519,417.314 332.5,417C 317.074,410.236 311.741,398.736 316.5,382.5 Z"/></g>
<g><path style="opacity:1" fill="#512916" d="M 236.5,441.5 C 219.543,446.494 202.209,449.66 184.5,451C 185.416,451.278 186.082,451.778 186.5,452.5C 131.732,443.058 78.0649,429.391 25.5,411.5C 23.7481,405.32 22.7481,398.987 22.5,392.5C 22.369,391.761 22.5357,391.094 23,390.5C 35.9888,395.741 49.1555,400.574 62.5,405C 119.576,422.247 177.576,434.414 236.5,441.5 Z"/></g>
<g><path style="opacity:0.999" fill="#ea2f3b" d="M 25.5,411.5 C 78.0649,429.391 131.732,443.058 186.5,452.5C 241.045,462.301 296.045,466.967 351.5,466.5C 351.068,467.71 350.401,468.71 349.5,469.5C 287.549,470.004 226.215,464.171 165.5,452C 117.255,451.119 71.255,440.619 27.5,420.5C 26.3664,417.63 25.6997,414.63 25.5,411.5 Z"/></g>
<g><path style="opacity:1" fill="#d32027" d="M 27.5,420.5 C 71.255,440.619 117.255,451.119 165.5,452C 226.215,464.171 287.549,470.004 349.5,469.5C 345.993,475.852 341.993,481.852 337.5,487.5C 243.192,487.894 150.858,474.394 60.5,447C 50.6904,443.454 41.0237,439.621 31.5,435.5C 29.7028,430.646 28.3695,425.646 27.5,420.5 Z"/></g>
<g><path style="opacity:0.999" fill="#ef3d42" d="M 31.5,435.5 C 41.0237,439.621 50.6904,443.454 60.5,447C 150.858,474.394 243.192,487.894 337.5,487.5C 337.068,488.71 336.401,489.71 335.5,490.5C 334.903,489.861 334.07,489.528 333,489.5C 310.529,491.974 288.029,492.141 265.5,490C 205.687,484.309 146.687,473.976 88.5,459C 69.2563,453.642 50.5896,446.809 32.5,438.5C 31.8902,437.609 31.5569,436.609 31.5,435.5 Z"/></g>
<g><path style="opacity:1" fill="#ffe1a2" d="M 32.5,438.5 C 50.5896,446.809 69.2563,453.642 88.5,459C 146.687,473.976 205.687,484.309 265.5,490C 288.029,492.141 310.529,491.974 333,489.5C 334.07,489.528 334.903,489.861 335.5,490.5C 333.183,494.146 330.516,497.48 327.5,500.5C 326.294,497.861 324.294,497.028 321.5,498C 319.285,500.242 318.952,502.742 320.5,505.5C 318.879,507.117 316.879,508.284 314.5,509C 310.688,509.795 307.021,510.629 303.5,511.5C 287.5,511.5 271.5,511.5 255.5,511.5C 202.246,506.553 149.579,497.386 97.5,484C 79.6976,479.261 62.6976,472.595 46.5,464C 43.9614,461.63 41.6281,459.13 39.5,456.5C 43.5867,458.25 45.0867,456.917 44,452.5C 43.2249,450.777 41.8916,449.777 40,449.5C 38.2509,449.748 37.4176,450.748 37.5,452.5C 35.0649,448.201 33.3982,443.534 32.5,438.5 Z"/></g>
<g><path style="opacity:1" fill="#451f12" d="M 236.5,441.5 C 278.017,446.873 319.684,448.873 361.5,447.5C 358.927,454.315 355.594,460.649 351.5,466.5C 296.045,466.967 241.045,462.301 186.5,452.5C 186.082,451.778 185.416,451.278 184.5,451C 202.209,449.66 219.543,446.494 236.5,441.5 Z"/></g>
<g><path style="opacity:1" fill="#fff5ed" d="M 39.5,456.5 C 38.3995,455.395 37.7329,454.062 37.5,452.5C 37.4176,450.748 38.2509,449.748 40,449.5C 41.8916,449.777 43.2249,450.777 44,452.5C 45.0867,456.917 43.5867,458.25 39.5,456.5 Z"/></g>
<g><path style="opacity:1" fill="#fffdfb" d="M 54.5,456.5 C 61.004,456.138 62.6707,458.638 59.5,464C 52.745,464.756 51.0783,462.256 54.5,456.5 Z"/></g>
<g><path style="opacity:1" fill="#fffdf8" d="M 72.5,461.5 C 77.7641,461.417 79.4307,463.75 77.5,468.5C 73.4458,471.479 70.7792,470.479 69.5,465.5C 69.7867,463.557 70.7867,462.223 72.5,461.5 Z"/></g>
<g><path style="opacity:1" fill="#fffdf9" d="M 89.5,466.5 C 94.9836,466.481 96.6503,468.981 94.5,474C 86.6557,475.029 84.989,472.529 89.5,466.5 Z"/></g>
<g><path style="opacity:1" fill="#fffdf8" d="M 107.5,470.5 C 113.293,471.421 114.626,474.255 111.5,479C 106.502,480.33 104.336,478.496 105,473.5C 105.698,472.309 106.531,471.309 107.5,470.5 Z"/></g>
<g><path style="opacity:1" fill="#fffdfa" d="M 123.5,475.5 C 125.527,475.338 127.527,475.505 129.5,476C 131.62,477.523 131.953,479.356 130.5,481.5C 126.49,484.667 123.823,483.834 122.5,479C 122.648,477.744 122.982,476.577 123.5,475.5 Z"/></g>
<g><path style="opacity:1" fill="#fffdf8" d="M 142.5,478.5 C 148.643,479.026 149.976,481.86 146.5,487C 142.15,487.645 139.983,485.812 140,481.5C 140.698,480.309 141.531,479.309 142.5,478.5 Z"/></g>
<g><path style="opacity:1" fill="#fffdfb" d="M 159.5,482.5 C 166.004,482.138 167.671,484.638 164.5,490C 157.745,490.756 156.078,488.256 159.5,482.5 Z"/></g>
<g><path style="opacity:1" fill="#fffdfb" d="M 177.5,485.5 C 184.004,485.138 185.671,487.638 182.5,493C 175.745,493.756 174.078,491.256 177.5,485.5 Z"/></g>
<g><path style="opacity:1" fill="#fffdf9" d="M 194.5,488.5 C 199.993,487.178 202.493,489.178 202,494.5C 200.192,496.396 198.025,496.896 195.5,496C 193.285,493.758 192.952,491.258 194.5,488.5 Z"/></g>
<g><path style="opacity:1" fill="#fffdf8" d="M 213.5,490.5 C 220.358,491.127 221.691,493.96 217.5,499C 212.504,499.664 210.67,497.498 212,492.5C 212.717,491.956 213.217,491.289 213.5,490.5 Z"/></g>
<g><path style="opacity:1" fill="#fffdfa" d="M 230.5,493.5 C 237.158,492.344 239.158,494.844 236.5,501C 230.224,502.048 228.224,499.548 230.5,493.5 Z"/></g>
<g><path style="opacity:1" fill="#fffefc" d="M 248.5,495.5 C 254.885,494.214 256.885,496.547 254.5,502.5C 248.296,503.958 246.296,501.625 248.5,495.5 Z"/></g>
<g><path style="opacity:1" fill="#fffdfa" d="M 267.5,496.5 C 273.643,497.026 274.976,499.86 271.5,505C 266.504,505.664 264.67,503.498 266,498.5C 266.717,497.956 267.217,497.289 267.5,496.5 Z"/></g>
<g><path style="opacity:1" fill="#fffdf9" d="M 285.5,497.5 C 291.191,497.548 292.857,500.215 290.5,505.5C 283.409,506.531 281.742,503.864 285.5,497.5 Z"/></g>
<g><path style="opacity:1" fill="#fffdfa" d="M 303.5,498.5 C 306.325,498.081 308.491,499.081 310,501.5C 310.711,503.367 310.211,504.867 308.5,506C 301.369,507.211 299.702,504.711 303.5,498.5 Z"/></g>
<g><path style="opacity:1" fill="#fff3eb" d="M 327.5,500.5 C 325.704,502.9 323.37,504.567 320.5,505.5C 318.952,502.742 319.285,500.242 321.5,498C 324.294,497.028 326.294,497.861 327.5,500.5 Z"/></g>
</svg>
